<svg xmlns="http://www.w3.org/2000/svg" viewBox="0 0 275.25 71.53"><g id="Warstwa_2" data-name="Warstwa 2"><g id="Warstwa_1-2" data-name="Warstwa 1"><g id="Warstwa_2-2" data-name="Warstwa 2"><g id="Layer_1" data-name="Layer 1"><polygon points="171.19 0 162.34 12.24 194.01 12.24 160.65 59.02 177.23 59.02 219.84 0 171.19 0" style="fill:#fff"/><path d="M96.88,32.5q12.21,4.38,12.21,17.73A21.14,21.14,0,0,1,106.8,60a19.23,19.23,0,0,1-6.58,7.34,23.15,23.15,0,0,1-8.81,3.33,57.11,57.11,0,0,1-9.68.86H62.67V59.09H82.59a30.35,30.35,0,0,0,4.76-.38,13.73,13.73,0,0,0,4.29-1.38,8,8,0,0,0,3.1-2.86,8.7,8.7,0,0,0,1.19-4.72,8,8,0,0,0-1.19-4.48,9.76,9.76,0,0,0-3-3A12.92,12.92,0,0,0,87.5,40.7a22.44,22.44,0,0,0-4.62-.48H62.67V27.83H81a24.26,24.26,0,0,0,3.81-.29,9.4,9.4,0,0,0,3.38-1.14,6.65,6.65,0,0,0,3.39-6.2,7.45,7.45,0,0,0-.86-3.76,6.86,6.86,0,0,0-2.29-2.38,9.77,9.77,0,0,0-3.28-1.29,19.06,19.06,0,0,0-3.77-.38H62.67V0H78.11C80,0,81.79.05,83.64.14A34.52,34.52,0,0,1,89,.86a26.24,26.24,0,0,1,5.1,1.67,17.32,17.32,0,0,1,4.67,3.09,16.78,16.78,0,0,1,4.38,6,17.59,17.59,0,0,1,1.63,7.24A14.79,14.79,0,0,1,96.88,32.5Z" style="fill:#fff"/><path d="M157.1,71.48h-16L115.35,34.22h15.16a17.73,17.73,0,0,0,4.91-.67,11.81,11.81,0,0,0,4.05-2,9.48,9.48,0,0,0,2.71-3.38,11.09,11.09,0,0,0,1-4.91,10.42,10.42,0,0,0-1-4.82,9.81,9.81,0,0,0-2.82-3.38,12.32,12.32,0,0,0-4-2,17.12,17.12,0,0,0-4.77-.67H108.78V.09h21.83A45.76,45.76,0,0,1,139.8,1,19.94,19.94,0,0,1,148,4.86a21.85,21.85,0,0,1,8.4,17.35,26.33,26.33,0,0,1-1.77,9.24,20.57,20.57,0,0,1-5.1,7.82,19.09,19.09,0,0,1-5.48,3.86,37.84,37.84,0,0,1-6.33,2Z" style="fill:#fff"/><path d="M45.56,8.29a31.21,31.21,0,0,1,5,5.82,38.2,38.2,0,0,1,3.67,6.81,39.49,39.49,0,0,1,2.24,7.43A39.35,39.35,0,0,1,57.28,36a37.2,37.2,0,0,1-1.14,9.1,38.31,38.31,0,0,1-3.29,8.58,33.45,33.45,0,0,1-5.34,7.43,30,30,0,0,1-7.29,5.67,33,33,0,0,1-11.48,3.77,86.61,86.61,0,0,1-12.25.9H0V59.09H16.11A69.54,69.54,0,0,0,25,58.57a24.4,24.4,0,0,0,8.49-2.91,19.3,19.3,0,0,0,4.62-3.57,21,21,0,0,0,3.38-4.72A25,25,0,0,0,44.23,36a24.19,24.19,0,0,0-2-9.63,22.72,22.72,0,0,0-5.71-8A19.91,19.91,0,0,0,31.26,15a27.75,27.75,0,0,0-5.71-1.76,44.14,44.14,0,0,0-6.06-.72c-2.07-.09-4.15-.13-6.24-.14H0V0H16.21c2.47,0,5,.11,7.67.33a51.72,51.72,0,0,1,7.81,1.29,43.84,43.84,0,0,1,7.39,2.53A26.07,26.07,0,0,1,45.56,8.29Z" style="fill:#fff"/><polygon points="226.59 0 217.75 12.24 249.41 12.24 216.03 59.02 232.6 59.02 275.25 0 226.59 0" style="fill:#fff"/></g></g></g></g></svg>