<svg xmlns="http://www.w3.org/2000/svg" viewBox="0 0 275.25 108.78"><g id="Warstwa_2" data-name="Warstwa 2"><g id="Layer_1" data-name="Layer 1"><polygon points="171.19 0 162.34 12.24 194.01 12.24 160.65 59.02 177.23 59.02 219.84 0 171.19 0" style="fill:#fff"/><path d="M96.88,32.5q12.21,4.38,12.21,17.73A21.15,21.15,0,0,1,106.8,60a19.25,19.25,0,0,1-6.58,7.34,23.15,23.15,0,0,1-8.81,3.33,56.56,56.56,0,0,1-9.68.86H62.67V59.09H82.59a30.55,30.55,0,0,0,4.76-.38,13.68,13.68,0,0,0,4.29-1.38,8.11,8.11,0,0,0,3.1-2.86,8.63,8.63,0,0,0,1.19-4.72,8,8,0,0,0-1.19-4.48,9.66,9.66,0,0,0-3-3A13,13,0,0,0,87.5,40.7a23,23,0,0,0-4.62-.48H62.67V27.83H81a24.44,24.44,0,0,0,3.81-.29,9.44,9.44,0,0,0,3.38-1.14,6.65,6.65,0,0,0,3.39-6.2,7.45,7.45,0,0,0-.86-3.76,6.87,6.87,0,0,0-2.29-2.38,9.74,9.74,0,0,0-3.28-1.29,19.13,19.13,0,0,0-3.77-.38H62.67V0H78.11C80,0,81.79.05,83.64.14A34,34,0,0,1,89,.86a26.46,26.46,0,0,1,5.1,1.67,17.37,17.37,0,0,1,4.67,3.09,16.79,16.79,0,0,1,4.38,6,17.61,17.61,0,0,1,1.63,7.24A14.79,14.79,0,0,1,96.88,32.5Z" style="fill:#fff"/><path d="M157.1,71.48h-16L115.35,34.22h15.16a17.64,17.64,0,0,0,4.91-.67,11.73,11.73,0,0,0,4.05-2,9.48,9.48,0,0,0,2.71-3.38,11.09,11.09,0,0,0,1-4.91,10.44,10.44,0,0,0-1-4.82,9.77,9.77,0,0,0-2.82-3.38,12.23,12.23,0,0,0-4-2,17.18,17.18,0,0,0-4.77-.67H108.78V.09h21.83A46.05,46.05,0,0,1,139.8,1,19.84,19.84,0,0,1,148,4.86a21.87,21.87,0,0,1,8.4,17.35,26.13,26.13,0,0,1-1.77,9.24,20.48,20.48,0,0,1-5.1,7.82,19.17,19.17,0,0,1-5.48,3.86,37.39,37.39,0,0,1-6.33,2Z" style="fill:#fff"/><path d="M8.08,108.7l-.89-1.49H1.82L1,108.7H0l3.92-6.76H5L9,108.7Zm-3.59-6.09L2.23,106.5H6.78Z" style="fill:#fff"/><path d="M15.36,108.7v-6.76h.84v6h5.25v.74Z" style="fill:#fff"/><path d="M28.06,108.7v-6.76h.84v6h5.25v.74Z" style="fill:#fff"/><path d="M57,105.71A1.17,1.17,0,0,1,58.16,107v1.67h-.84v-1.51c0-1-.47-1.14-1.63-1.14h-4.1v2.65h-.84v-6.76h4.83c1.9,0,2.65.24,2.65,1.61v.81C58.23,105.16,58,105.51,57,105.71Zm.31-1.9c0-.92-.31-1.13-1.5-1.13H51.59v2.59h4.26c1.19,0,1.5-.21,1.5-1.13Z" style="fill:#fff"/><path d="M73,108.31a3.89,3.89,0,0,1-2.44.47H68.28a3.91,3.91,0,0,1-2.44-.47,2.33,2.33,0,0,1-.69-2v-1.84a2.51,2.51,0,0,1,.68-2.13,4,4,0,0,1,2.44-.47h2.26a4,4,0,0,1,2.44.47,2.44,2.44,0,0,1,.68,2v1.89A2.43,2.43,0,0,1,73,108.31Zm-.23-4a1.92,1.92,0,0,0-.25-1.21c-.3-.39-.79-.5-1.56-.5H67.87c-.77,0-1.26.11-1.56.5a2.1,2.1,0,0,0-.26,1.32v1.77a2.1,2.1,0,0,0,.26,1.32c.3.39.79.49,1.56.49h3.06c.77,0,1.26-.1,1.56-.49a2,2,0,0,0,.25-1.22Z" style="fill:#fff"/><path d="M85.39,108.7H80.73v-6.76h4.82a4.17,4.17,0,0,1,2,.3c.47.3.57.72.57,1.41,0,.87-.2,1.25-1.11,1.44,1,.07,1.34.45,1.34,1.32v.72C88.39,108.5,87.51,108.7,85.39,108.7Zm1.67-5.84a3.44,3.44,0,0,0-1.52-.18h-4v2.1h3.84c1.49,0,1.94,0,1.94-1C87.35,103.28,87.28,103,87.06,102.86ZM86,105.57H81.57v2.36H86c1.28,0,1.59-.19,1.59-1.11S87.33,105.57,86,105.57Z" style="fill:#fff"/><path d="M103,108.31a3.91,3.91,0,0,1-2.45.47H98.27a3.94,3.94,0,0,1-2.45-.47,2.36,2.36,0,0,1-.69-2v-1.84a2.54,2.54,0,0,1,.68-2.13,4,4,0,0,1,2.45-.47h2.25a4,4,0,0,1,2.45.47,2.47,2.47,0,0,1,.68,2v1.89A2.43,2.43,0,0,1,103,108.31Zm-.23-4a1.85,1.85,0,0,0-.26-1.21c-.29-.39-.79-.5-1.56-.5h-3c-.78,0-1.27.11-1.57.5a2.1,2.1,0,0,0-.25,1.32v1.77a2.1,2.1,0,0,0,.25,1.32c.3.39.79.49,1.57.49h3c.77,0,1.27-.1,1.56-.49a1.9,1.9,0,0,0,.26-1.22Z" style="fill:#fff"/><path d="M114.29,102.7v6h-.83v-6h-3.35v-.76h7.53v.76Z" style="fill:#fff"/><path d="M128.94,108.78h-2.3c-1.76,0-2.52-.47-2.52-1.77,0-.15,0-.32,0-.51H125c0,.17,0,.3,0,.4,0,.92.59,1.13,2,1.13h1.77c1.64,0,2.21-.18,2.21-1.31,0-1-.43-1.11-1.49-1.11h-2.85c-1.76,0-2.44-.47-2.44-1.86s.86-1.89,2.91-1.89h1.53a4.18,4.18,0,0,1,2.54.43,1.63,1.63,0,0,1,.46,1.34v.19h-.81v-.1c0-1-.42-1.13-1.67-1.13h-2.31c-1.32,0-1.78.21-1.78,1.12s.54,1.14,1.84,1.14h2.43a3.89,3.89,0,0,1,1.84.27c.51.31.64.81.64,1.65C131.73,108.32,131,108.78,128.94,108.78Z" style="fill:#fff"/><path d="M146.45,106.59a1.34,1.34,0,1,1,1.35-1.35A1.36,1.36,0,0,1,146.45,106.59Z" style="fill:#fff"/><path d="M169.12,108.31a3.89,3.89,0,0,1-2.44.47h-2.25a3.94,3.94,0,0,1-2.45-.47,2.36,2.36,0,0,1-.68-2v-1.84a2.54,2.54,0,0,1,.67-2.13,4.07,4.07,0,0,1,2.45-.47h2.26a4,4,0,0,1,2.44.47,2.47,2.47,0,0,1,.68,2v1.89A2.43,2.43,0,0,1,169.12,108.31Zm-.23-4a1.92,1.92,0,0,0-.25-1.21c-.3-.39-.79-.5-1.56-.5H164c-.77,0-1.26.11-1.56.5a2.1,2.1,0,0,0-.26,1.32v1.77a2.1,2.1,0,0,0,.26,1.32c.3.39.79.49,1.56.49h3.06c.77,0,1.26-.1,1.56-.49a2,2,0,0,0,.25-1.22Z" style="fill:#fff"/><path d="M181.13,108.7l-6.2-6.08v6.08h-.84v-6.76h1.32l6.11,6v-6h.83v6.76Z" style="fill:#fff"/><path d="M189.59,108.7v-6.76h6.65v.76h-5.83v2.12H196v.75h-5.59V108h5.83v.75Z" style="fill:#fff"/><path d="M217.74,106h-3.86v2.67H213v-6.76h4.7c1.88,0,2.64.23,2.64,1.61v.89C220.38,105.82,219.62,106,217.74,106Zm1.74-2.22c0-.91-.26-1.13-1.5-1.13h-4.1v2.59H218c1.24,0,1.5-.22,1.5-1.13Z" style="fill:#fff"/><path d="M227.22,108.7v-6.76h.84v6h5.25v.74Z" style="fill:#fff"/><path d="M246.36,108.7l-.88-1.49h-5.37l-.87,1.49h-1l3.92-6.76h1.11l3.93,6.76Zm-3.59-6.09-2.25,3.89h4.55Z" style="fill:#fff"/><path d="M260.91,108.36a3.77,3.77,0,0,1-2.35.42h-2.12a3.44,3.44,0,0,1-2.29-.47,2.42,2.42,0,0,1-.64-2v-1.84a2.6,2.6,0,0,1,.64-2.13,3.55,3.55,0,0,1,2.28-.47h2.13c2.05,0,2.82.35,2.82,1.91,0,.11,0,.23,0,.36h-.76V104c0-1.07-.43-1.43-1.58-1.43H256.1c-.73,0-1.18.12-1.45.5a2.2,2.2,0,0,0-.24,1.31v1.79a2.2,2.2,0,0,0,.24,1.31c.27.38.72.49,1.45.49H259c1.22,0,1.65-.3,1.65-1.43v-.18h.77c0,.12,0,.23,0,.33A2,2,0,0,1,260.91,108.36Z" style="fill:#fff"/><path d="M268.46,108.7v-6.76h6.65v.76h-5.84v2.12h5.6v.75h-5.6V108h5.84v.75Z" style="fill:#fff"/><path d="M45.56,8.29a31.62,31.62,0,0,1,5,5.82,38,38,0,0,1,3.67,6.81,39.86,39.86,0,0,1,2.24,7.43A39.52,39.52,0,0,1,57.28,36a37.14,37.14,0,0,1-1.14,9.1,38.17,38.17,0,0,1-3.29,8.58,33.74,33.74,0,0,1-5.34,7.43,30,30,0,0,1-7.29,5.67,32.9,32.9,0,0,1-11.48,3.77,85.73,85.73,0,0,1-12.25.9H0V59.09H16.11A70,70,0,0,0,25,58.57a24.38,24.38,0,0,0,8.49-2.91,19.44,19.44,0,0,0,4.62-3.57,20.71,20.71,0,0,0,3.38-4.72A25,25,0,0,0,44.23,36a24.17,24.17,0,0,0-2-9.63,22.68,22.68,0,0,0-5.71-8A19.87,19.87,0,0,0,31.26,15a27.94,27.94,0,0,0-5.71-1.76,43.06,43.06,0,0,0-6.06-.72q-3.1-.13-6.24-.14H0V0H16.21q3.7,0,7.67.33a51.51,51.51,0,0,1,7.81,1.29,44.07,44.07,0,0,1,7.39,2.53A26.05,26.05,0,0,1,45.56,8.29Z" style="fill:#fff"/><polygon points="226.59 0 217.75 12.24 249.41 12.24 216.03 59.02 232.6 59.02 275.25 0 226.59 0" style="fill:#fff"/></g></g></svg>