<svg xmlns="http://www.w3.org/2000/svg" viewBox="0 0 78.28 40.55">
    <title>logo_dbr</title>
    <g id="Layer_2" data-name="Layer 2">
        <g id="Warstwa_2" data-name="Warstwa 2">
            <path
                d="M32,20a17.62,17.62,0,0,1-3.3-.29l-.33-.08.09-.32A17.84,17.84,0,0,1,29.85,16a14.52,14.52,0,0,1,5-5.41A14.59,14.59,0,0,1,42,8.76a17.21,17.21,0,0,1,3.57.3l.33.07-.1.33a16.4,16.4,0,0,1-1.43,3.28,14.45,14.45,0,0,1-5,5.41A14.59,14.59,0,0,1,32.22,20Zm-2.82-.85c1.32.21,6.07.76,9.9-1.53s5.59-6.73,6-8c-1.31-.21-6.06-.77-9.89,1.52S29.57,17.87,29.13,19.13Z"
                style="fill:#c8beff"/>
            <path
                d="M50.36,12.2a.31.31,0,0,1-.2-.07,12.63,12.63,0,0,0-4.77-2.45.33.33,0,0,1-.23-.39.32.32,0,0,1,.39-.23,13.15,13.15,0,0,1,5,2.58.31.31,0,0,1,.05.44A.3.3,0,0,1,50.36,12.2Z"
                style="fill:#c8beff"/>
            <path
                d="M45.47,9.69h-.08a.33.33,0,0,1-.23-.39,12.65,12.65,0,0,0,.05-5.59.33.33,0,0,1,.25-.38.33.33,0,0,1,.38.26,13.45,13.45,0,0,1-.06,5.87A.33.33,0,0,1,45.47,9.69Z"
                style="fill:#c8beff"/>
            <path
                d="M28.62,25.19a.31.31,0,0,1-.31-.26,13.26,13.26,0,0,1,.1-5.63.32.32,0,0,1,.62.15,12.64,12.64,0,0,0-.1,5.36.31.31,0,0,1-.25.37Z"
                style="fill:#c8beff"/>
            <path
                d="M28.72,19.69h-.08A13.42,13.42,0,0,1,23.44,17a.32.32,0,0,1,0-.44.32.32,0,0,1,.45-.05,12.78,12.78,0,0,0,4.95,2.61.31.31,0,0,1,.23.38A.32.32,0,0,1,28.72,19.69Z"
                style="fill:#c8beff"/>
            <path
                d="M44.42,18.17a17.6,17.6,0,0,1-1.81-.09,14.38,14.38,0,0,1-7-2.39,14.56,14.56,0,0,1-4.54-5.78,17.49,17.49,0,0,1-1.17-3.39l-.07-.33.34-.05a17.27,17.27,0,0,1,3.58,0,14.55,14.55,0,0,1,7,2.39,14.47,14.47,0,0,1,4.55,5.79,18.13,18.13,0,0,1,1.17,3.38l.06.34-.33,0A12.89,12.89,0,0,1,44.42,18.17ZM30.65,6.73C31,8,32.39,12.59,36,15.18s8.42,2.4,9.74,2.3C45.43,16.19,44,11.62,40.38,9S32,6.63,30.65,6.73Z"
                style="fill:#3a2b68"/>
            <path
                d="M45.82,23.56h-.08a.32.32,0,0,1-.23-.39,12.65,12.65,0,0,0,.33-5.35.32.32,0,0,1,.26-.37.32.32,0,0,1,.37.26,13.43,13.43,0,0,1-.34,5.62A.32.32,0,0,1,45.82,23.56Z"
                style="fill:#3a2b68"/>
            <path
                d="M46.15,18.08a.32.32,0,0,1-.31-.27.32.32,0,0,1,.26-.37,12.71,12.71,0,0,0,5.14-2.2.33.33,0,0,1,.45.08.32.32,0,0,1-.08.44,13.43,13.43,0,0,1-5.4,2.31Z"
                style="fill:#3a2b68"/>
            <path
                d="M25.18,8.89a.31.31,0,0,1-.26-.14A.32.32,0,0,1,25,8.31a13.45,13.45,0,0,1,5.2-2.17.31.31,0,0,1,.36.26.32.32,0,0,1-.26.37,12.58,12.58,0,0,0-4.94,2.07A.31.31,0,0,1,25.18,8.89Z"
                style="fill:#3a2b68"/>
            <path
                d="M30.25,6.77a.31.31,0,0,1-.31-.26,13.5,13.5,0,0,1,.4-5.86.32.32,0,0,1,.4-.22A.33.33,0,0,1,31,.82a12.71,12.71,0,0,0-.4,5.58.32.32,0,0,1-.26.37Z"
                style="fill:#3a2b68"/>
            <path
                d="M56.64,38.15v1.69a4.45,4.45,0,0,1-2.2.64,3.47,3.47,0,0,1-2.55-1.09,3.51,3.51,0,0,1-1.1-2.54,3.78,3.78,0,0,1,3.83-4,4.67,4.67,0,0,1,2,.47v1.86a2.51,2.51,0,0,0-1.82-.9,2.11,2.11,0,0,0-2.26,2.37A2,2,0,0,0,54.86,39a2.46,2.46,0,0,0,1.78-.82Zm1.17-1.4a3.77,3.77,0,0,1,3.76-3.87,3.91,3.91,0,0,1,4,3.87,4,4,0,0,1-3.89,3.75A3.75,3.75,0,0,1,59,39.38a3.58,3.58,0,0,1-1.15-2.63Zm6,0a2.25,2.25,0,0,0-2.2-2.37,2.19,2.19,0,0,0-2.15,2.38A2.22,2.22,0,0,0,61.62,39a2.29,2.29,0,0,0,2.2-2.32Zm3.42,3.44v-7h1.48v1.07a2.86,2.86,0,0,1,2.44-1.28,2,2,0,0,1,2.22,1.47,4.83,4.83,0,0,1,1.07-1.12A3.56,3.56,0,0,1,76,32.91a2.39,2.39,0,0,1,1.64.63A2.06,2.06,0,0,1,78.28,35v5.13H76.8V35.4c0-.78-.66-1.18-1.42-1.18a2,2,0,0,0-1.42.6,2.36,2.36,0,0,0-.46,1.49v3.85H72V35.61a1.27,1.27,0,0,0-1.33-1.39,1.94,1.94,0,0,0-2,2v4ZM37.54,29.42h7.4L39.39,40.55,38,40.07l4.47-9.2H37.54V29.42Zm-9,0h7.4L30.36,40.55,29,40.07l4.46-9.2H28.51V29.42Zm-6.77,1.49v3.15c2.18,0,2.71-.22,2.71-1.53,0-1.74-1.36-1.62-2.71-1.62ZM20,29.44H23a2.82,2.82,0,0,1,3.16,3.1,2.48,2.48,0,0,1-2.49,2.76l3.74,5h-2l-3.61-4.9h-.23v4.9H20V29.44Zm-7.07,5.88V38.8h.92c1.16,0,2.5-.19,2.5-1.7s-1-1.78-2.15-1.78Zm0-4.44V34h1.18c.93,0,1.84-.39,1.84-1.62,0-1-.92-1.46-2.07-1.46Zm-1.69-1.44h3.4c2.25,0,3.13,1.13,3.13,2.7a2.23,2.23,0,0,1-1.52,2.36c1.56.33,1.95,1.35,1.95,2.7,0,2.26-1.4,3.09-4.14,3.09H11.22V29.44ZM1.69,31v7.65H3c2.45,0,4.41-.55,4.41-3.81C7.36,32,6,31,3.38,31ZM0,29.44H3.71c3.35,0,5.41,1.83,5.41,5.42S7,40.29,3.73,40.29H0V29.44Zm48,8.91a.95.95,0,1,1-1,.95A.95.95,0,0,1,48,38.35Z"
                style="fill:#3a2b68;fill-rule:evenodd"/>
            <path
                d="M37.1,23.28,36.87,23a16.69,16.69,0,0,1-2.09-2.91,14.56,14.56,0,0,1-2.08-7.06A14.56,14.56,0,0,1,34.78,6a16.69,16.69,0,0,1,2.09-2.91l.23-.25.23.25A17,17,0,0,1,39.41,6a14.45,14.45,0,0,1,2.09,7.06,14.45,14.45,0,0,1-2.09,7.06A17,17,0,0,1,37.33,23Zm0-19.49c-.86,1-3.77,4.81-3.77,9.27s2.91,8.26,3.77,9.27c.85-1,3.76-4.81,3.76-9.27S38,4.81,37.1,3.79Z"
                style="fill:#8787ff"/>
            <path
                d="M32.43,26a.3.3,0,0,1-.29-.21.32.32,0,0,1,.18-.41,12.67,12.67,0,0,0,4.55-2.83.33.33,0,0,1,.45,0,.31.31,0,0,1,0,.45,13.28,13.28,0,0,1-4.78,3Z"
                style="fill:#8787ff"/>
            <path
                d="M42,26.12a.22.22,0,0,1-.11,0,13.3,13.3,0,0,1-5-3.06.32.32,0,1,1,.45-.45,12.88,12.88,0,0,0,4.78,2.92.32.32,0,0,1,.19.4A.32.32,0,0,1,42,26.12Z"
                style="fill:#8787ff"/>
            <path
                d="M37.1,3.62a.35.35,0,0,1-.23-.09A12.67,12.67,0,0,0,32.32.7a.31.31,0,0,1-.18-.41.32.32,0,0,1,.4-.19,13.42,13.42,0,0,1,4.78,3,.32.32,0,0,1-.22.54Z"
                style="fill:#8787ff"/>
            <path
                d="M37.1,3.62a.35.35,0,0,1-.23-.09.33.33,0,0,1,0-.45,13.55,13.55,0,0,1,5-3.06.32.32,0,0,1,.41.19.32.32,0,0,1-.19.41,12.73,12.73,0,0,0-4.78,2.91A.31.31,0,0,1,37.1,3.62Z"
                style="fill:#8787ff"/>
            <path d="M40.23,16.33a.95.95,0,1,1,0,1.9.95.95,0,0,1,0-1.9Z" style="fill:#8787ff;fill-rule:evenodd"/>
            <path d="M40.23,8a.95.95,0,1,1-.95.95A.95.95,0,0,1,40.23,8Z" style="fill:#8787ff;fill-rule:evenodd"/>
            <path d="M44,11.7a1,1,0,1,1,0,1.9.95.95,0,0,1,0-1.9Z" style="fill:#c8beff;fill-rule:evenodd"/>
            <path d="M34.74,5.72a1,1,0,1,1-1,1A.95.95,0,0,1,34.74,5.72Z" style="fill:#3a2b68;fill-rule:evenodd"/>
            <path d="M34.74,18.51a1,1,0,1,1,0,1.9,1,1,0,1,1,0-1.9Z" style="fill:#c8beff;fill-rule:evenodd"/>
            <path d="M33,11.43a1,1,0,1,1,0,1.9.95.95,0,0,1,0-1.9Z" style="fill:#8787ff;fill-rule:evenodd"/>
        </g>
    </g>
</svg>
