<svg xmlns="http://www.w3.org/2000/svg" viewBox="0 0 388.18 129.33"><g id="Warstwa_2" data-name="Warstwa 2"><g id="Layer_1" data-name="Layer 1"><polygon points="0 80.09 19.34 128.6 29.7 128.6 10.69 80.09 0 80.09" style="fill:#2d3943"/><path d="M113.35,99.56l-.53-4.42h-8.71V128.6h9.77v-20a10,10,0,0,1,8.32-4.42H123v-9.7A11,11,0,0,0,113.35,99.56Z" style="fill:#2d3943"/><polygon points="160.53 103.39 173.6 103.39 159.67 128.34 159.67 128.6 188.18 128.6 188.18 120.35 174.39 120.35 188.32 95.4 188.32 95.14 160.53 95.14 160.53 103.39" style="fill:#2d3943"/><path d="M217.67,98.9c-1.72-2.44-4.89-4.42-9.57-4.42-8.85,0-14.72,7.39-14.72,17.42s5.87,17.36,14.72,17.36c4.68,0,7.85-2,9.57-4.36l.46,3.7h8.78V95.14h-8.78Zm-.53,17.69c-1.45,2.37-3.37,4.16-6.67,4.16-4.29,0-7.19-3.37-7.19-8.85s2.9-8.91,7.19-8.91c3.3,0,5.22,1.78,6.67,4.16Z" style="fill:#2d3943"/><path d="M143.81,108.14c-4.75-1.12-5.94-1.85-5.94-3.5s1.52-2.64,4.22-2.64a14.85,14.85,0,0,1,8.45,2.84L154.1,98a20.52,20.52,0,0,0-11.88-3.5c-8.91,0-14.12,4.29-14.12,11,0,5.21,3.43,7.92,10.89,9.77,4.36,1,5.54,1.91,5.54,3.69,0,2-1.78,2.84-4.75,2.84a14.26,14.26,0,0,1-9.17-3.36l-3.76,7c3,2.38,7.78,3.83,12.87,3.83,9.1,0,14.58-4.49,14.58-11.22C154.3,113,150.94,109.86,143.81,108.14Z" style="fill:#2d3943"/><polygon points="351.37 95.14 340.28 95.14 328.6 112.89 328.6 78.44 318.83 78.44 318.83 128.6 326.55 128.6 334.73 117.31 341.27 128.6 352.36 128.6 341.2 108.93 351.37 95.14" style="fill:#2d3943"/><polygon points="51.55 80.09 42.11 106.03 32.6 80.09 21.45 80.09 42.11 129.33 42.37 129.33 62.63 80.09 51.55 80.09" style="fill:#2d3943"/><path d="M378.94,98.9c-1.71-2.44-4.88-4.42-9.57-4.42-8.84,0-14.72,7.39-14.72,17.42s5.88,17.36,14.72,17.36c4.69,0,7.86-2,9.57-4.36l.46,3.7h8.78V95.14H379.4Zm-.53,17.69c-1.45,2.37-3.36,4.16-6.66,4.16-4.29,0-7.2-3.37-7.2-8.85s2.91-8.91,7.2-8.91c3.3,0,5.21,1.78,6.66,4.16Z" style="fill:#2d3943"/><path d="M300.82,108.14c-4.75-1.12-5.94-1.85-5.94-3.5S296.4,102,299.1,102a14.85,14.85,0,0,1,8.45,2.84L311.12,98a20.55,20.55,0,0,0-11.88-3.5c-8.91,0-14.13,4.29-14.13,11,0,5.21,3.43,7.92,10.89,9.77,4.36,1,5.55,1.91,5.55,3.69,0,2-1.79,2.84-4.76,2.84a14.26,14.26,0,0,1-9.17-3.36l-3.76,7c3,2.38,7.79,3.83,12.87,3.83,9.11,0,14.58-4.49,14.58-11.22C311.31,113,308,109.86,300.82,108.14Z" style="fill:#2d3943"/><path d="M85.17,98.9c-1.71-2.44-4.88-4.42-9.57-4.42-8.84,0-14.71,7.39-14.71,17.42s5.87,17.36,14.71,17.36c4.69,0,7.86-2,9.57-4.36l.47,3.7h8.77V95.14H85.64Zm-.52,17.69c-1.46,2.37-3.37,4.16-6.67,4.16-4.29,0-7.19-3.37-7.19-8.85S73.69,103,78,103c3.3,0,5.21,1.78,6.67,4.16Z" style="fill:#2d3943"/><polygon points="265 111.31 257.14 95.14 256.88 95.14 248.96 111.31 242.62 95.14 231.93 95.14 247.97 129.26 248.23 129.26 257.01 112.83 265.79 129.26 266.05 129.26 282.09 95.14 271.4 95.14 265 111.31" style="fill:#2d3943"/><path d="M61,50.82c10.17,0,17.69-7.26,17.69-17.29S71.19,16,61,16,43.4,23.5,43.4,33.53,50.86,50.82,61,50.82Zm0-26.27c4.62,0,7.86,3.7,7.86,9S65.64,42.31,61,42.31s-7.72-3.63-7.72-8.78S56.47,24.55,61,24.55Z" style="fill:#2d3943"/><path d="M232.4,29.11c1.25-2,3.23-3.9,6.27-3.9,3.36,0,5.41,2.51,5.41,6.21V50.16h9.77V30.89c0-9-4.36-14.85-12.54-14.85a11.33,11.33,0,0,0-8.91,3.63V0h-9.77V50.16h9.77Z" style="fill:#2d3943"/><path d="M40.52,17.69c0-10.3-7.59-16-17.49-16h-.66v8.71c4.95.27,7.86,2.84,7.86,7.33,0,4.68-2.84,7.13-7.86,7.32v8.72h.53C32.87,33.73,40.52,28,40.52,17.69Z" style="fill:#2d3943"/><path d="M165.72,50.82c6.27,0,11-2.24,14.33-6.47l-6.54-5a9.21,9.21,0,0,1-7.46,3.37c-4.75,0-7.72-2.44-8-6.67h22.57V33c0-9.17-5-17-15.51-17-10,0-16.9,7.46-16.9,17.49S155.23,50.82,165.72,50.82Zm-.85-27.46c3.89,0,6.07,2.84,6.2,6.6H158.13C158.33,26.14,160.91,23.36,164.87,23.36Z" style="fill:#2d3943"/><rect x="4.03" y="1.65" width="10.1" height="48.51" style="fill:#2d3943"/><rect x="85.28" width="9.77" height="50.16" style="fill:#2d3943"/><rect x="301.38" y="16.7" width="9.77" height="33.46" style="fill:#2d3943"/><path d="M293.22,50.16V30.89c0-9-4.35-14.85-12.54-14.85-4.55,0-7.79,1.91-9.5,4.35l-.46-3.69H262V50.16h9.77v-21c1.26-2,3.24-3.9,6.27-3.9,3.37,0,5.41,2.51,5.41,6.21V50.16Z" style="fill:#2d3943"/><polygon points="352.31 16.7 341.22 16.7 329.54 34.45 329.54 0 319.77 0 319.77 50.16 327.49 50.16 335.67 38.87 342.21 50.16 353.3 50.16 342.14 30.49 352.31 16.7" style="fill:#2d3943"/><path d="M379.4,16.7l-.46,3.76C377.23,18,374.06,16,369.37,16c-8.84,0-14.72,7.39-14.72,17.42s5.88,17.36,14.72,17.36c4.69,0,7.86-2,9.57-4.36l.46,3.7h8.78V16.7Zm-1,21.45c-1.45,2.37-3.36,4.16-6.66,4.16-4.29,0-7.2-3.37-7.2-8.85s2.91-8.91,7.2-8.91c3.3,0,5.21,1.78,6.66,4.16Z" style="fill:#2d3943"/><path d="M306.33.4a5.54,5.54,0,0,0-5.74,5.74,5.71,5.71,0,1,0,11.42,0A5.53,5.53,0,0,0,306.33.4Z" style="fill:#2d3943"/><rect x="103.61" y="16.7" width="9.77" height="33.46" style="fill:#2d3943"/><path d="M217,42.9l-6.59-4.82a8,8,0,0,1-7.07,4.29c-4.88,0-7.65-4-7.65-8.91s2.7-9,7.59-9a7.53,7.53,0,0,1,6.86,4.29l6.8-5A15.48,15.48,0,0,0,203.18,16c-10.09,0-17.29,7.39-17.29,17.42s7.2,17.36,17.29,17.36A15.39,15.39,0,0,0,217,42.9Z" style="fill:#2d3943"/><path d="M108.56,11.88a5.52,5.52,0,0,0,5.67-5.74,5.71,5.71,0,1,0-11.42,0A5.55,5.55,0,0,0,108.56,11.88Z" style="fill:#2d3943"/><path d="M137.9,50.82a13.68,13.68,0,0,0,7.65-2l-2.44-7.72a9.52,9.52,0,0,1-4.35,1.06,4.21,4.21,0,0,1-4.49-4.56V25h9.57V16.7h-9.57V5.61H124.5V16.7h-6V25h6V37.69C124.5,46.13,129.65,50.82,137.9,50.82Z" style="fill:#2d3943"/></g></g></svg>