<?xml version="1.0" standalone="no"?>
<!DOCTYPE svg PUBLIC "-//W3C//DTD SVG 20010904//EN"
 "http://www.w3.org/TR/2001/REC-SVG-20010904/DTD/svg10.dtd">
<svg version="1.0" xmlns="http://www.w3.org/2000/svg"
 width="1840.000000pt" height="1840.000000pt" viewBox="0 0 1840.000000 1840.000000"
 preserveAspectRatio="xMidYMid meet">
<metadata>
Created by potrace 1.14, written by Peter Selinger 2001-2017
</metadata>
<g transform="translate(0.000000,1840.000000) scale(0.100000,-0.100000)"
fill="#000000" stroke="none">
<path d="M1599 13810 c-52 -72 -101 -139 -109 -150 -8 -10 -31 -42 -50 -70
-19 -28 -47 -65 -63 -83 -15 -17 -30 -40 -33 -49 -3 -10 -10 -18 -15 -18 -5 0
-9 -7 -9 -15 0 -8 -4 -15 -10 -15 -5 0 -10 -7 -10 -15 0 -8 -3 -15 -7 -15 -5
0 -19 -17 -33 -38 -14 -20 -28 -41 -33 -47 -55 -72 -137 -188 -137 -196 0 -5
-4 -9 -8 -9 -4 0 -15 -12 -24 -27 -9 -16 -26 -39 -37 -53 -11 -14 -65 -88
-120 -165 -55 -77 -104 -144 -108 -150 -5 -5 -20 -26 -33 -45 -13 -19 -28 -39
-33 -45 -4 -5 -37 -50 -72 -100 -35 -49 -70 -98 -77 -107 -7 -9 -20 -26 -28
-38 -55 -80 -135 -186 -142 -188 -4 -2 -8 -8 -8 -14 0 -5 -12 -26 -27 -46 -27
-36 -34 -45 -61 -76 -6 -8 -12 -20 -12 -26 0 -5 -5 -10 -11 -10 -6 0 -9 -6 -6
-12 3 -10 519 -13 2533 -14 2052 0 2528 -3 2526 -13 -1 -7 -23 -41 -48 -75
-39 -52 -318 -445 -356 -500 -7 -10 -38 -53 -69 -95 -30 -42 -112 -157 -182
-256 -70 -99 -134 -189 -143 -200 -9 -11 -28 -38 -42 -60 -15 -22 -35 -49 -44
-59 -10 -11 -18 -26 -18 -33 0 -7 -4 -13 -8 -13 -4 0 -15 -12 -24 -27 -9 -16
-25 -37 -35 -48 -10 -11 -30 -38 -43 -60 -13 -22 -29 -44 -35 -50 -6 -5 -20
-23 -30 -40 -10 -16 -22 -34 -27 -40 -13 -16 -71 -97 -93 -129 -101 -146 -198
-281 -207 -284 -4 -2 -8 -8 -8 -13 0 -10 -102 -152 -112 -157 -5 -2 -8 -10 -8
-17 0 -8 -6 -18 -12 -22 -17 -11 -58 -69 -58 -83 0 -5 -3 -10 -8 -10 -4 0 -18
-18 -32 -40 -14 -22 -28 -40 -32 -40 -4 0 -9 -8 -12 -17 -3 -10 -16 -30 -28
-46 -13 -15 -39 -50 -58 -78 -19 -27 -52 -74 -73 -102 -20 -29 -43 -61 -51
-72 -8 -11 -52 -73 -98 -137 -46 -65 -114 -163 -153 -218 -38 -55 -79 -111
-90 -124 -11 -13 -40 -54 -65 -91 -25 -37 -57 -82 -72 -100 -16 -18 -28 -35
-28 -39 0 -3 -27 -41 -60 -85 -33 -44 -60 -84 -60 -90 0 -5 -4 -11 -8 -13 -5
-1 -28 -32 -53 -67 -24 -36 -52 -74 -61 -85 -10 -12 -18 -25 -20 -31 -1 -5
-12 -21 -25 -35 -13 -14 -23 -28 -23 -32 0 -3 -6 -13 -13 -20 -25 -27 -187
-257 -187 -267 0 -5 -4 -11 -8 -13 -5 -1 -41 -48 -80 -103 -38 -55 -77 -108
-86 -117 -9 -10 -16 -22 -16 -28 0 -5 -4 -10 -10 -10 -5 0 -10 -7 -10 -15 0
-8 -4 -15 -10 -15 -5 0 -10 -4 -10 -10 0 -9 -19 -35 -47 -65 -7 -8 -13 -17
-13 -22 0 -4 -10 -20 -23 -35 -35 -43 -58 -77 -56 -84 0 -4 -3 -10 -8 -13 -5
-3 -22 -24 -38 -46 -17 -22 -34 -43 -40 -47 -5 -4 -7 -8 -3 -8 7 0 -3 -14 -37
-54 -19 -22 -55 -75 -55 -81 0 -4 -7 -13 -15 -22 -9 -8 -33 -41 -54 -72 -21
-31 -122 -173 -224 -316 -102 -143 -196 -275 -209 -293 -13 -18 -33 -45 -45
-60 -13 -15 -23 -32 -23 -37 0 -6 -8 -18 -18 -27 -23 -22 -33 -36 -59 -78 -20
-32 -34 -51 -73 -97 -5 -7 -10 -15 -10 -18 0 -4 -6 -13 -12 -20 -7 -8 -28 -36
-46 -62 -18 -26 -105 -148 -193 -271 -87 -122 -159 -224 -159 -227 0 -3 -7
-13 -16 -22 -8 -10 -33 -43 -55 -73 -49 -69 -62 -87 -93 -130 -15 -19 -29 -43
-32 -52 -4 -10 -10 -18 -15 -18 -5 0 -15 -12 -23 -27 -8 -16 -22 -38 -33 -50
-10 -12 -33 -44 -51 -70 -61 -87 -311 -438 -320 -449 -5 -5 -14 -20 -21 -31
-6 -12 -17 -28 -23 -35 -7 -7 -23 -28 -36 -46 l-23 -32 1333 0 1333 1 90 125
c50 69 96 135 104 147 8 12 30 41 48 64 18 23 33 46 33 52 0 6 5 11 10 11 6 0
10 6 10 14 0 8 4 16 8 18 5 2 26 28 48 58 21 30 42 60 47 65 4 6 60 82 123
170 63 88 130 180 148 205 18 25 61 86 96 135 35 50 69 95 74 100 6 6 17 22
25 38 8 15 18 27 23 27 4 0 8 5 8 12 0 6 7 18 15 27 26 27 115 151 115 161 0
4 3 10 8 12 7 3 58 71 137 184 22 31 46 62 53 70 6 7 12 17 12 22 0 6 3 12 8
14 4 2 30 35 57 73 27 39 53 75 58 80 4 6 48 66 97 135 144 201 194 269 210
287 5 7 10 16 10 22 0 5 3 11 7 13 12 5 73 85 73 95 0 5 13 23 28 40 16 17 37
44 48 60 10 16 30 46 42 66 13 21 28 37 34 37 5 0 7 4 4 9 -4 5 -2 11 2 13 5
1 56 71 115 153 59 83 111 155 116 161 6 7 38 52 73 100 34 49 68 95 75 102 7
8 18 23 24 34 6 11 17 27 24 36 43 53 135 184 135 192 0 6 3 10 8 10 4 0 18
18 32 40 14 22 28 40 32 40 4 0 9 8 12 18 3 9 16 29 30 43 13 14 29 35 35 48
7 12 19 30 26 39 23 28 79 105 105 144 14 21 28 38 33 38 4 0 7 5 7 11 0 5 27
46 60 90 33 44 60 84 60 89 0 6 4 10 9 10 4 0 29 30 54 68 80 118 219 307 228
310 5 2 9 10 9 18 0 8 5 14 10 14 6 0 10 5 10 11 0 11 60 92 73 97 4 2 7 9 7
16 0 7 8 21 18 32 9 10 24 29 32 40 56 81 136 191 147 202 6 6 15 21 18 32 3
11 10 20 14 20 4 0 22 21 38 48 17 26 43 61 57 77 14 17 26 35 26 42 0 6 4 13
8 15 5 2 58 73 120 158 61 85 115 160 119 165 5 6 37 51 72 100 36 50 89 122
118 161 29 40 53 76 53 82 0 6 6 15 13 19 12 7 53 61 97 128 9 13 25 36 37 52
12 15 77 105 144 198 67 94 137 190 155 215 27 37 214 296 281 389 10 14 33
44 51 68 17 24 32 47 32 52 0 5 3 11 8 13 6 3 76 94 112 148 8 13 24 35 36 49
11 14 60 82 109 151 49 69 92 126 97 128 4 2 8 8 8 13 0 6 5 15 10 22 6 7 34
44 61 82 28 39 59 81 69 95 19 26 169 234 204 285 12 16 26 35 31 41 6 7 39
53 75 103 36 51 93 130 128 177 34 47 62 87 62 89 0 4 13 22 45 59 6 7 15 19
20 27 29 45 65 97 81 116 11 12 29 37 42 55 58 83 314 435 327 451 8 9 15 19
15 22 0 4 60 88 272 379 24 32 47 65 51 72 7 12 -606 14 -3896 14 l-3905 0
-93 -130z"/>
<path d="M10560 13902 c-14 -20 -33 -46 -42 -56 -10 -11 -18 -26 -18 -33 0 -8
-4 -11 -10 -8 -5 3 -10 1 -10 -5 0 -6 -5 -16 -10 -23 -39 -47 -78 -106 -73
-111 4 -3 2 -6 -3 -6 -9 0 -61 -69 -189 -250 -94 -132 -141 -197 -151 -207 -7
-7 -22 -29 -35 -50 -13 -21 -26 -40 -29 -43 -6 -5 -71 -94 -247 -339 -34 -47
-66 -90 -70 -96 -5 -5 -12 -18 -16 -27 -3 -10 -11 -18 -17 -18 -5 0 -10 -5
-10 -10 0 -11 -10 -24 -42 -61 -10 -10 -18 -22 -18 -26 0 -5 -15 -27 -33 -50
-17 -23 -57 -76 -87 -118 -30 -42 -60 -82 -65 -88 -6 -7 -28 -39 -50 -72 -22
-33 -48 -67 -57 -76 -10 -9 -15 -19 -11 -22 3 -4 -2 -9 -11 -13 -9 -3 -16 -12
-16 -20 0 -8 -4 -14 -8 -14 -5 0 -14 -10 -20 -22 -7 -13 -18 -32 -27 -43 l-14
-20 2538 0 2539 0 -16 -28 c-10 -16 -25 -37 -34 -47 -10 -11 -18 -22 -18 -25
0 -4 -6 -13 -12 -20 -7 -7 -29 -37 -48 -65 -19 -28 -46 -66 -60 -84 -14 -19
-32 -44 -40 -56 -8 -12 -37 -52 -64 -88 -26 -36 -59 -82 -72 -101 -13 -20 -41
-61 -63 -91 -22 -30 -60 -84 -85 -120 -24 -36 -54 -75 -66 -87 -11 -13 -18
-23 -15 -23 4 0 0 -6 -7 -14 -7 -7 -19 -22 -26 -32 -20 -31 -160 -228 -169
-239 -5 -5 -17 -23 -27 -40 -11 -16 -26 -36 -33 -43 -7 -8 -18 -23 -24 -35 -7
-11 -16 -26 -21 -31 -8 -9 -42 -57 -124 -171 -8 -11 -45 -65 -84 -120 -74
-106 -85 -121 -125 -171 -14 -18 -25 -35 -25 -38 0 -3 -6 -14 -14 -23 -25 -31
-80 -107 -100 -138 -11 -16 -24 -35 -30 -42 -6 -6 -31 -42 -56 -78 -25 -37
-53 -76 -62 -86 -10 -11 -18 -21 -18 -23 0 -3 -37 -57 -82 -120 -46 -63 -90
-124 -98 -137 -8 -12 -23 -31 -32 -41 -10 -10 -18 -20 -18 -24 0 -3 -24 -38
-52 -78 -29 -39 -57 -79 -63 -88 -21 -33 -174 -244 -189 -260 -9 -10 -16 -22
-16 -28 0 -5 -4 -10 -10 -10 -5 0 -10 -7 -10 -15 0 -8 -4 -15 -10 -15 -5 0
-10 -7 -10 -15 0 -8 -3 -15 -7 -15 -5 0 -26 -27 -48 -60 -22 -33 -43 -60 -47
-60 -5 0 -8 -5 -8 -11 0 -5 -15 -30 -32 -53 -18 -24 -40 -54 -48 -66 -8 -12
-21 -28 -27 -36 -7 -7 -13 -15 -13 -18 0 -5 -98 -144 -110 -156 -3 -3 -21 -27
-40 -55 -19 -27 -38 -51 -42 -53 -4 -2 -8 -10 -8 -18 0 -8 -4 -14 -8 -14 -5 0
-14 -10 -19 -22 -6 -13 -18 -32 -27 -43 -9 -11 -89 -121 -177 -245 -87 -124
-165 -232 -172 -240 -6 -8 -30 -42 -52 -75 -22 -33 -42 -62 -46 -65 -3 -3 -21
-27 -40 -55 -18 -27 -38 -54 -42 -60 -5 -5 -41 -55 -80 -111 -40 -56 -80 -112
-89 -125 -10 -13 -62 -87 -117 -164 -55 -77 -110 -155 -123 -173 -13 -18 -33
-45 -45 -60 -13 -15 -23 -32 -23 -39 0 -6 -3 -13 -7 -15 -13 -5 -63 -76 -63
-87 0 -6 -4 -11 -8 -11 -5 0 -30 -33 -57 -72 -27 -40 -55 -80 -62 -88 -8 -8
-56 -76 -109 -150 -52 -74 -101 -143 -109 -153 -8 -9 -15 -20 -15 -23 0 -2 -5
-10 -10 -17 -6 -7 -40 -52 -75 -102 -36 -49 -73 -101 -82 -114 -10 -13 -25
-34 -33 -47 -14 -21 -189 -268 -264 -372 -17 -23 -41 -55 -53 -70 -13 -15 -23
-32 -23 -39 0 -6 -3 -13 -8 -15 -11 -5 -142 -187 -142 -197 0 -5 -4 -11 -8
-13 -4 -1 -42 -50 -82 -108 -41 -58 -78 -106 -82 -108 -5 -2 -8 -8 -8 -13 0
-8 -45 -71 -86 -122 -8 -9 -14 -21 -14 -26 0 -5 -3 -11 -7 -13 -8 -3 -18 -17
-80 -108 -21 -30 -40 -57 -43 -60 -4 -3 -28 -36 -55 -75 -27 -38 -53 -71 -57
-73 -5 -2 -8 -8 -8 -13 0 -5 -18 -32 -40 -61 -22 -29 -40 -56 -40 -60 0 -5
599 -8 1330 -8 732 0 1330 3 1330 8 0 4 26 42 58 84 31 42 64 86 72 98 8 12
116 162 240 333 124 172 237 328 250 347 14 19 33 43 42 54 10 11 20 28 24 38
3 10 10 18 15 18 5 0 9 4 9 10 0 5 7 18 14 27 8 10 33 43 55 73 22 30 44 60
48 65 5 6 29 39 53 75 25 36 47 67 51 70 3 3 21 28 40 55 18 28 36 52 39 55 3
3 28 37 55 75 27 39 59 84 72 100 27 35 27 35 73 100 19 28 38 55 42 60 5 6
31 42 58 80 28 39 59 81 70 93 11 13 20 26 20 28 0 4 53 78 194 271 17 23 45
61 61 84 17 24 51 71 78 106 26 35 47 68 47 73 0 5 6 13 13 17 6 4 17 15 22
24 15 25 128 182 140 195 5 6 17 22 25 34 8 12 21 29 28 36 7 8 11 14 8 14 -6
0 16 28 42 56 7 8 11 14 8 14 -3 0 1 8 9 18 39 46 145 194 145 202 0 4 4 10 8
12 4 2 48 59 97 128 50 69 98 134 107 144 10 11 18 25 18 32 0 7 4 14 8 16 4
2 58 73 119 158 61 85 119 164 127 175 46 59 56 74 56 85 0 6 5 8 10 5 6 -3
10 0 10 8 0 8 9 22 20 32 11 10 20 23 20 28 0 5 15 28 33 51 18 23 68 91 112
151 43 61 84 113 90 117 6 5 6 8 0 8 -7 0 -7 3 0 8 6 4 25 27 43 52 131 179
182 251 182 259 0 5 4 11 8 13 8 3 103 131 222 298 29 41 57 77 62 78 4 2 8
10 8 18 0 8 3 14 8 14 4 0 18 18 32 40 13 22 28 40 32 40 4 0 8 5 8 11 0 9 21
40 67 99 42 53 83 111 83 116 0 2 5 10 10 17 38 45 50 61 50 67 0 3 8 15 18
26 10 10 33 42 52 69 37 54 37 54 75 101 14 18 25 36 25 42 0 6 4 12 8 14 4 2
23 25 42 52 19 28 42 57 50 67 16 17 137 188 155 217 6 10 12 19 15 22 3 3 27
34 52 70 26 36 51 70 55 75 5 6 31 42 58 80 27 39 53 72 57 73 4 2 8 8 8 13 0
8 47 73 90 126 6 7 10 16 10 22 0 5 7 12 16 15 8 3 12 10 9 16 -3 5 -2 10 4
10 5 0 20 17 32 38 13 20 29 43 36 50 7 8 18 23 24 34 6 11 17 27 24 36 30 36
115 153 115 158 0 3 6 12 13 19 19 22 31 37 57 75 13 19 29 38 35 42 6 5 6 8
0 8 -6 0 -5 3 1 8 6 4 46 57 89 117 69 96 101 139 134 181 4 5 13 20 20 31 6
12 17 27 24 35 8 7 25 30 38 50 13 19 36 51 50 69 14 19 59 81 100 139 40 58
79 110 85 117 6 6 25 34 43 62 18 28 37 51 43 51 5 0 7 4 4 9 -3 4 3 16 13 25
10 10 31 37 47 62 15 24 32 44 36 44 4 0 8 5 8 10 0 9 71 111 109 156 5 6 20
29 35 52 14 23 31 42 37 42 5 0 8 4 5 9 -3 4 3 16 14 26 11 10 20 22 20 27 0
4 8 17 18 27 20 23 27 32 72 96 19 28 40 56 47 63 7 7 13 16 13 20 0 4 11 21
25 37 28 34 36 45 50 67 20 33 130 183 142 196 7 8 18 23 24 35 7 12 18 29 25
37 28 30 84 110 84 119 0 5 4 11 8 13 4 2 36 42 70 90 35 48 69 94 77 102 8 7
11 16 8 20 -4 3 -1 6 5 6 7 0 12 7 12 15 0 8 3 15 8 15 4 0 22 21 40 48 17 26
59 84 92 130 l60 82 -3908 0 -3907 0 -25 -38z"/>
</g>
</svg>
