<svg xmlns="http://www.w3.org/2000/svg" preserveAspectRatio="none" viewBox="0 0 287754 859" width="287754" height="859"><path d="M1053.5 194.5C1207.5 161 1193-.5 1193-.5H0v540.583S-34.835 775.967 54.5 804c131.392 41.231 167.6-47.795 297.5-93.5 201.041-70.735 213.157 115.571 269 133 78.5 24.5 425.71 70.412 373.5-345.5-14.5-115.5-296-226.276 59-303.5z" fill="#e2d7ea"/><path d="M2247.499 194.51C2401.499 161.01 2387-.5 2387-.5H1194v540.583s-34.831 235.88 54.504 263.913c131.392 41.231 167.596-47.785 297.49-93.49 201.039-70.739 213.162 115.555 269.004 132.986 78.498 24.503 425.716 70.428 373.506-345.484-14.5-115.5-296.005-226.274 58.995-303.498z" fill="#e2d7ea"/><path d="M3441.496 194.539C3595.496 161.039 3581-.5 3581-.5H2388v540.583s-34.819 235.869 54.516 263.902c131.392 41.231 167.583-47.755 297.46-93.46 201.034-70.751 213.178 115.505 269.015 132.942 78.494 24.512 425.735 70.476 373.525-345.436-14.5-115.5-296.02-226.268 58.98-303.492z" fill="#e2d7ea"/><path d="M4635.49 194.589C4789.49 161.089 4775-.5 4775-.5H3582v540.583s-34.799 235.85 54.536 263.883c131.392 41.231 167.561-47.704 297.409-93.41 201.026-70.77 213.205 115.421 269.034 132.867 78.487 24.529 425.767 70.56 373.557-345.352-14.5-115.5-296.046-226.258 58.954-303.482z" fill="#e2d7ea"/><path d="M5829.481 194.661C5983.481 161.161 5969-.5 5969-.5H4776v540.583s-34.769 235.823 54.566 263.856c131.392 41.231 167.529-47.631 297.334-93.338 201.014-70.798 213.243 115.299 269.063 132.76 78.476 24.551 425.813 70.679 373.603-345.233-14.5-115.5-296.085-226.243 58.915-303.467z" fill="#e2d7ea"/><path d="M7023.47 194.755C7177.47 161.255 7163-.5 7163-.5H5970v540.583s-34.73 235.787 54.605 263.82c131.392 41.231 167.487-47.534 297.236-93.242 200.999-70.835 213.294 115.138 269.1 132.619 78.461 24.581 425.874 70.836 373.664-345.076-14.5-115.5-296.135-226.225 58.865-303.449z" fill="#e2d7ea"/><path d="M8217.457 194.874C8371.457 161.374 8357-.5 8357-.5H7164v540.583s-34.681 235.742 54.654 263.775c131.392 41.231 167.434-47.413 297.114-93.122 200.978-70.882 213.357 114.937 269.145 132.441 78.444 24.619 425.951 71.034 373.741-344.878-14.5-115.5-296.197-226.201 58.803-303.425z" fill="#e2d7ea"/><path d="M9411.44 195.019C9565.44 161.519 9551-.5 9551-.5H8358v540.583s-34.622 235.687 54.713 263.72c131.392 41.231 167.371-47.265 296.965-92.975 200.954-70.939 213.435 114.691 269.202 132.224 78.422 24.665 426.043 71.275 373.833-344.637-14.5-115.5-296.273-226.172 58.727-303.396z" fill="#e2d7ea"/><path d="M10605.42 195.19C10759.42 161.69 10745-.5 10745-.5H9552v540.583s-34.552 235.622 54.783 263.655c131.392 41.231 167.295-47.09 296.788-92.802 200.925-71.006 213.528 114.401 269.269 131.968 78.396 24.72 426.153 71.56 373.943-344.352-14.5-115.5-296.363-226.138 58.637-303.362z" fill="#e2d7ea"/><path d="M11799.397 195.39C11953.397 161.89 11939-.5 11939-.5h-1193v540.583s-34.47 235.547 54.865 263.58c131.392 41.231 167.207-46.886 296.582-92.601 200.892-71.085 213.635 114.062 269.347 131.67 78.366 24.783 426.281 71.892 374.071-344.02-14.5-115.5-296.468-226.098 58.532-303.322z" fill="#e2d7ea"/><path d="M12993.37 195.62C13147.37 162.12 13133-.5 13133-.5h-1193v540.583s-34.375 235.459 54.96 263.492c131.392 41.231 167.105-46.651 296.344-92.367 200.853-71.176 213.759 113.672 269.437 131.325 78.331 24.857 426.429 72.275 374.219-343.637-14.5-115.5-296.59-226.052 58.41-303.276z" fill="#e2d7ea"/><path d="M14187.34 195.882C14341.34 162.382 14327-.5 14327-.5h-1193v540.583s-34.268 235.36 55.067 263.393c131.392 41.231 166.989-46.383 296.075-92.103 200.809-71.278 213.899 113.228 269.538 130.934 78.292 24.94 426.597 72.711 374.387-343.201-14.5-115.5-296.727-226 58.273-303.224z" fill="#e2d7ea"/><path d="M15381.306 196.178C15535.306 162.678 15521-.5 15521-.5h-1193v540.583s-34.146 235.248 55.189 263.281c131.392 41.231 166.858-46.082 295.769-91.804 200.759-71.395 214.058 112.727 269.653 130.492 78.248 25.034 426.788 73.202 374.578-342.71-14.5-115.5-296.883-225.94 58.117-303.164z" fill="#e2d7ea"/><path d="M16575.267 196.509C16729.267 163.009 16715-.5 16715-.5h-1193v540.583s-34.01 235.123 55.325 263.156c131.392 41.231 166.712-45.744 295.427-91.47 200.704-71.525 214.236 112.166 269.783 129.997 78.197 25.139 427 73.753 374.79-342.159-14.5-115.5-297.058-225.874 57.942-303.098z" fill="#e2d7ea"/><path d="M17769.225 196.879C17923.225 163.379 17909-.5 17909-.5h-1193v540.583s-33.859 234.983 55.476 263.016c131.392 41.231 166.549-45.367 295.047-91.097 200.642-71.67 214.434 111.54 269.926 129.445 78.142 25.257 427.237 74.368 375.027-341.544-14.5-115.5-297.251-225.8 57.749-303.024z" fill="#e2d7ea"/><path d="M18963.177 197.288C19117.177 163.788 19103-.5 19103-.5h-1193v540.583s-33.691 234.828 55.644 262.861c131.392 41.231 166.368-44.949 294.625-90.683 200.573-71.831 214.653 110.846 270.085 128.833 78.081 25.387 427.5 75.048 375.29-340.864-14.5-115.5-297.467-225.718 57.533-302.942z" fill="#e2d7ea"/><path d="M20157.125 197.739C20311.125 164.239 20297-.5 20297-.5h-1193v540.583s-33.505 234.656 55.83 262.689c131.392 41.231 166.168-44.487 294.158-90.226 200.498-72.008 214.896 110.081 270.262 128.158 78.012 25.531 427.79 75.8 375.58-340.112-14.5-115.5-297.705-225.629 57.295-302.853z" fill="#e2d7ea"/><path d="M21351.068 198.236C21505.068 164.736 21491-.5 21491-.5h-1193v540.583s-33.301 234.468 56.034 262.501c131.392 41.231 165.948-43.98 293.646-89.724 200.414-72.204 215.162 109.239 270.455 127.415 77.937 25.689 428.108 76.626 375.898-339.286-14.5-115.5-297.966-225.529 57.035-302.753z" fill="#e2d7ea"/><path d="M22545.005 198.78C22699.005 165.28 22685-.5 22685-.5h-1193v540.583s-33.078 234.262 56.257 262.295c131.392 41.231 165.708-43.425 293.085-89.175 200.323-72.417 215.455 108.318 270.667 126.603 77.855 25.862 428.458 77.53 376.248-338.382-14.5-115.5-298.253-225.42 56.748-302.644z" fill="#e2d7ea"/><path d="M23738.936 199.374C23892.936 165.874 23879-.5 23879-.5h-1193v540.583s-32.834 234.037 56.501 262.07c131.392 41.231 165.445-42.818 292.472-88.574 200.223-72.652 215.773 107.31 270.898 125.714 77.766 26.051 428.84 78.519 376.63-337.393-14.5-115.5-298.565-225.302 56.435-302.526z" fill="#e2d7ea"/><path d="M24932.861 200.022C25086.861 166.522 25073-.5 25073-.5h-1193v540.583s-32.568 233.792 56.767 261.825c131.392 41.231 165.159-42.158 291.804-87.921 200.114-72.905 216.121 106.214 271.15 124.747 77.669 26.258 429.255 79.595 377.045-336.317-14.5-115.5-298.905-225.171 56.095-302.395z" fill="#e2d7ea"/><path d="M26126.78 200.724C26280.78 167.224 26267-.5 26267-.5h-1193v540.583s-32.28 233.525 57.055 261.558c131.392 41.231 164.848-41.439 291.079-87.21 199.997-73.182 216.499 105.023 271.425 123.697 77.562 26.481 429.706 80.763 377.496-335.149-14.5-115.5-299.276-225.031 55.725-302.255z" fill="#e2d7ea"/><path d="M27320.691 201.485C27474.691 167.985 27461-.5 27461-.5h-1193v540.583s-31.968 233.237 57.367 261.27c131.392 41.231 164.512-40.663 290.295-86.441 199.869-73.481 216.907 103.733 271.72 122.559 77.449 26.723 430.195 82.029 377.985-333.883-14.5-115.5-299.676-224.879 55.324-302.103z" fill="#e2d7ea"/><path d="M28514.596 202.306C28668.596 168.806 28655-.5 28655-.5h-1193v540.583s-31.63 232.926 57.705 260.959c131.392 41.231 164.148-39.825 289.447-85.612 199.731-73.803 217.348 102.342 272.04 121.332 77.325 26.985 430.722 83.395 378.512-332.517-14.5-115.5-300.108-224.715 54.892-301.939z" fill="#e2d7ea"/><path d="M29708.494 203.19C29862.494 169.69 29849-.5 29849-.5h-1193v540.583s-31.267 232.591 58.068 260.624c131.392 41.231 163.758-38.922 288.535-84.718 199.583-74.152 217.822 100.843 272.384 120.01 77.192 27.266 431.29 84.865 379.08-331.047-14.5-115.5-300.573-224.538 54.427-301.762z" fill="#e2d7ea"/><path d="M30902.384 204.139C31056.384 170.639 31043-.5 31043-.5h-1193v540.583s-30.878 232.231 58.457 260.264c131.392 41.231 163.339-37.953 287.557-83.759 199.424-74.524 218.331 99.236 272.754 118.592 77.048 27.568 431.898 86.443 379.688-329.469-14.5-115.5-301.072-224.348 53.928-301.572z" fill="#e2d7ea"/><path d="M32096.267 205.152C32250.267 171.652 32237-.5 32237-.5h-1193v540.583s-30.462 231.847 58.873 259.88c131.392 41.231 162.891-36.918 286.511-82.735 199.254-74.923 218.876 97.518 273.149 117.077 76.896 27.891 432.549 88.129 380.339-327.783-14.5-115.5-301.605-224.146 53.395-301.37z" fill="#e2d7ea"/><path d="M33290.142 206.232C33444.142 172.732 33431-.5 33431-.5h-1193v540.583s-30.019 231.438 59.316 259.471c131.392 41.231 162.413-35.816 285.398-81.644 199.073-75.347 219.455 95.688 273.569 115.464 76.733 28.234 433.242 89.923 381.032-325.989-14.5-115.5-302.173-223.929 52.827-301.153z" fill="#e2d7ea"/><path d="M34484.01 207.376C34638.01 173.876 34625-.5 34625-.5h-1193v540.583s-29.549 231.005 59.786 259.038c131.392 41.231 161.907-34.648 284.217-80.489 198.881-75.796 220.07 93.75 274.015 113.754 76.561 28.599 433.977 91.827 381.767-324.085-14.5-115.5-302.776-223.701 52.225-300.925z" fill="#e2d7ea"/><path d="M35677.87 208.583C35831.87 175.083 35819-.5 35819-.5h-1193v540.583s-29.054 230.547 60.281 258.58c131.392 41.231 161.374-33.415 282.973-79.268 198.678-76.272 220.717 91.704 274.485 111.949 76.379 28.983 434.751 93.834 382.541-322.078-14.5-115.5-303.411-223.459 51.59-300.683z" fill="#e2d7ea"/><path d="M36871.723 209.85C37025.723 176.35 37013-.5 37013-.5h-1193v540.583s-28.534 230.067 60.801 258.1c131.392 41.231 160.814-32.122 281.666-77.989 198.466-76.769 221.397 89.558 274.978 110.057 76.189 29.386 435.565 95.941 383.355-319.971-14.5-115.5-304.077-223.206 50.923-300.43z" fill="#e2d7ea"/><path d="M38065.57 211.171C38219.57 177.671 38207-.5 38207-.5h-1193v540.583s-27.991 229.567 61.344 257.6c131.392 41.231 160.23-30.774 280.303-76.654 198.244-77.288 222.106 87.319 275.492 108.082 75.99 29.806 436.414 98.137 384.204-317.775-14.5-115.5-304.773-222.941 50.227-300.165z" fill="#e2d7ea"/><path d="M39259.412 212.54C39413.412 179.04 39401-.5 39401-.5h-1193v540.583s-27.429 229.048 61.906 257.081c131.392 41.231 159.624-29.376 278.89-75.27 198.014-77.827 222.842 84.998 276.026 106.035 75.784 30.242 437.293 100.415 385.083-315.497-14.5-115.5-305.494-222.668 49.507-299.892z" fill="#e2d7ea"/><path d="M40453.249 213.95C40607.249 180.45 40595-.5 40595-.5h-1193v540.583s-26.851 228.514 62.484 256.547c131.392 41.231 159.002-27.936 277.437-73.846 197.777-78.381 223.598 82.609 276.575 103.928 75.571 30.691 438.197 102.76 385.987-313.152-14.5-115.5-306.235-222.386 48.766-299.61z" fill="#e2d8ea"/><path d="M41647.082 215.391C41801.082 181.891 41789-.5 41789-.5h-1193v540.583s-26.259 227.967 63.076 256c131.392 41.231 158.364-26.464 275.95-72.389 197.535-78.947 224.372 80.167 277.136 101.774 75.354 31.15 439.123 105.157 386.913-310.755-14.5-115.5-306.994-222.098 48.007-299.322z" fill="#e2d8ea"/><path d="M42840.912 216.854C42994.912 183.354 42983-.5 42983-.5h-1193v540.583s-25.658 227.413 63.677 255.446c131.392 41.231 157.717-24.97 274.44-70.911 197.29-79.522 225.157 77.687 277.706 99.587 75.134 31.615 440.062 107.59 387.852-308.322-14.5-115.5-307.763-221.805 47.237-299.029z" fill="#e2d8ea"/><path d="M44034.742 218.33C44188.742 184.83 44177-.5 44177-.5h-1193v540.583s-25.052 226.854 64.283 254.887c131.392 41.231 157.064-23.464 272.918-69.42 197.042-80.102 225.949 75.186 278.28 97.381 74.912 32.085 441.01 110.045 388.8-305.867-14.5-115.5-308.54-221.51 46.461-298.734z" fill="#e2d8eb"/><path d="M45228.571 219.808C45382.571 186.308 45371-.5 45371-.5h-1193v540.583s-24.446 226.294 64.889 254.327c131.392 41.231 156.412-21.955 271.394-67.926 196.794-80.684 226.743 72.681 278.856 95.172 74.689 32.555 441.959 112.502 389.749-303.41-14.5-115.5-309.318-221.214 45.683-298.438z" fill="#e2d8eb"/><path d="M46422.4 221.278C46576.4 187.778 46565-.5 46565-.5h-1193v540.583s-23.842 225.736 65.493 253.769c131.392 41.231 155.761-20.453 269.876-66.44 196.548-81.261 227.533 70.19 279.43 92.974 74.467 33.024 442.902 114.949 390.692-300.963-14.5-115.5-310.092-220.921 44.909-298.145z" fill="#e2d8eb"/><path d="M47616.232 222.734C47770.232 189.234 47759-.5 47759-.5h-1193v540.583s-23.245 225.185 66.09 253.218c131.392 41.231 155.118-18.967 268.376-64.969 196.303-81.834 228.313 67.723 279.996 90.798 74.248 33.487 443.837 117.369 391.627-298.543-14.5-115.5-310.858-220.629 44.143-297.853z" fill="#e2d8eb"/><path d="M48810.066 224.166C48964.066 190.666 48953-.5 48953-.5h-1193v540.583s-22.657 224.642 66.678 252.675c131.392 41.231 154.485-17.504 266.898-63.522 196.063-82.396 229.083 65.296 280.554 88.658 74.032 33.943 444.757 119.751 392.547-296.161-14.5-115.5-311.612-220.343 43.389-297.567z" fill="#e1d8eb"/><path d="M50003.904 225.57C50157.904 192.07 50147-.5 50147-.5h-1193v540.583s-22.08 224.11 67.255 252.143c131.392 41.231 153.864-16.071 265.449-62.103 195.828-82.949 229.836 62.916 281.101 86.559 73.821 34.39 445.658 122.086 393.448-293.826-14.5-115.5-312.35-220.062 42.651-297.286z" fill="#e1d8eb"/><path d="M51197.745 226.94C51351.745 193.44 51341-.5 51341-.5h-1193v540.583s-21.518 223.591 67.817 251.624c131.392 41.231 153.259-14.673 264.036-60.719 195.599-83.487 230.572 60.595 281.634 84.512 73.615 34.826 446.538 124.364 394.328-291.548-14.5-115.5-313.071-219.789 41.93-297.012z" fill="#e1d8eb"/><path d="M52391.591 228.272C52545.591 194.772 52535-.5 52535-.5h-1193v540.583s-20.971 223.086 68.364 251.119c131.392 41.231 152.669-13.312 262.662-59.372 195.374-84.011 231.287 58.336 282.153 82.52 73.414 35.25 447.393 126.579 395.183-289.333-14.5-115.5-313.772-219.521 41.229-296.745z" fill="#e1d8eb"/><path d="M53585.441 229.564C53739.441 196.064 53729-.5 53729-.5h-1193v540.583s-20.441 222.596 68.894 250.629c131.392 41.231 152.099-11.992 261.329-58.066 195.158-84.519 231.981 56.147 282.657 80.588 73.219 35.661 448.222 128.729 396.012-287.183-14.5-115.5-314.452-219.263 40.549-296.487z" fill="#e1d8eb"/><path d="M54779.296 230.815C54933.296 197.315 54923-.5 54923-.5h-1193v540.583s-19.927 222.122 69.408 250.155c131.392 41.231 151.545-10.715 260.039-56.802 194.948-85.011 232.652 54.027 283.143 78.719 73.031 36.059 449.026 130.809 396.816-285.103-14.5-115.5-315.111-219.013 39.89-296.237z" fill="#e1d8eb"/><path d="M55973.157 232.023C56127.157 198.523 56117-.5 56117-.5h-1193v540.583s-19.431 221.665 69.904 249.698c131.392 41.231 151.011-9.483 258.793-55.583 194.745-85.485 233.3 51.981 283.613 76.915 72.85 36.443 449.801 132.817 397.591-283.095-14.5-115.5-315.746-218.771 39.256-295.995z" fill="#e1d8eb"/><path d="M57167.022 233.187C57321.022 199.687 57311-.5 57311-.5h-1193v540.583s-18.953 221.223 70.382 249.256c131.392 41.231 150.496-8.293 257.591-54.405 194.55-85.943 233.926 50.007 284.068 75.173 72.674 36.814 450.548 134.755 398.338-281.157-14.5-115.5-316.358-218.539 38.643-295.763z" fill="#e1d8eb"/><path d="M58360.892 234.309C58514.892 200.809 58505-.5 58505-.5h-1193v540.583s-18.493 220.798 70.842 248.831c131.392 41.231 150.001-7.147 256.434-53.271 194.362-86.384 234.528 48.105 284.505 73.496 72.505 37.171 451.269 136.62 399.059-279.292-14.5-115.5-316.949-218.314 38.052-295.538z" fill="#e1d8eb"/><path d="M59554.767 235.389C59708.767 201.889 59699-.5 59699-.5h-1193v540.583s-18.049 220.389 71.286 248.422c131.392 41.231 149.523-6.045 255.32-52.18 194.18-86.809 235.107 46.275 284.925 71.882 72.342 37.515 451.962 138.416 399.752-277.496-14.5-115.5-317.517-218.098 37.484-295.322z" fill="#e1d8eb"/><path d="M60748.647 236.428C60902.647 202.928 60893-.5 60893-.5h-1193v540.583s-17.623 219.995 71.712 248.028c131.392 41.231 149.064-4.984 254.249-51.13 194.006-87.217 235.665 44.515 285.329 70.329 72.186 37.846 452.63 140.144 400.42-275.768-14.5-115.5-318.065-217.89 36.937-295.114z" fill="#e1d9eb"/><path d="M61942.531 237.426C62096.531 203.926 62087-.5 62087-.5h-1193v540.583s-17.213 219.617 72.122 247.65c131.392 41.231 148.622-3.965 253.219-50.122 193.838-87.609 236.201 42.823 285.718 68.838 72.036 38.163 453.27 141.804 401.06-274.108-14.5-115.5-318.589-217.691 36.412-294.915z" fill="#e1d9eb"/><path d="M63136.42 238.385C63290.42 204.885 63281-.5 63281-.5h-1193v540.583s-16.819 219.254 72.516 247.287c131.392 41.231 148.198-2.986 252.229-49.153 193.678-87.986 236.716 41.197 286.092 67.403 71.891 38.469 453.886 143.4 401.676-272.512-14.5-115.5-319.094-217.499 35.907-294.723z" fill="#e1d9eb"/><path d="M64330.313 239.307C64484.313 205.807 64475-.5 64475-.5h-1193v540.583s-16.441 218.904 72.894 246.937c131.392 41.231 147.791-2.044 251.279-48.221 193.522-88.349 237.21 39.635 286.45 66.026 71.753 38.762 454.478 144.933 402.268-270.979-14.5-115.5-319.579-217.315 35.422-294.539z" fill="#e1d9eb"/><path d="M65524.211 240.192C65678.211 206.692 65669-.5 65669-.5h-1193v540.583s-16.077 218.569 73.258 246.602c131.392 41.231 147.399-1.141 250.365-47.327 193.374-88.697 237.686 38.135 286.795 64.703 71.62 39.044 455.047 146.405 402.837-269.507-14.5-115.5-320.045-217.138 34.956-294.362z" fill="#e1d9eb"/><path d="M66718.112 241.043C66872.112 207.543 66863-.5 66863-.5h-1193v540.583s-15.728 218.247 73.607 246.28c131.392 41.231 147.023-.273 249.488-46.468 193.231-89.031 238.142 36.694 287.126 63.432 71.492 39.314 455.593 147.819 403.383-268.093-14.5-115.5-320.493-216.967 34.508-294.191z" fill="#e1d9ec"/><path d="M67912.018 241.86C68066.018 208.36 68057-.5 68057-.5h-1193v540.583s-15.393 217.937 73.942 245.97c131.392 41.231 146.662.562 248.645-45.642 193.095-89.352 238.581 35.31 287.445 62.211 71.368 39.574 456.117 149.177 403.907-266.735-14.5-115.5-320.923-216.803 34.079-294.027z" fill="#e1d9ec"/><path d="M69105.927 242.644C69259.927 209.144 69251-.5 69251-.5h-1193v540.583s-15.071 217.64 74.264 245.673c131.392 41.231 146.316 1.363 247.836-44.849 192.963-89.661 239.002 33.98 287.751 61.038 71.25 39.824 456.62 150.482 404.41-265.43-14.5-115.5-321.335-216.647 33.666-293.871z" fill="#e1d9ec"/><path d="M70299.84 243.398C70453.84 209.898 70445-.5 70445-.5h-1193v540.583s-14.762 217.354 74.573 245.387c131.392 41.231 145.983 2.132 247.059-44.087 192.837-89.957 239.407 32.702 288.044 59.911 71.137 40.064 457.104 151.736 404.894-264.176-14.5-115.5-321.732-216.496 33.27-293.72z" fill="#e1d9ec"/><path d="M71493.756 244.122C71647.756 210.622 71639-.5 71639-.5h-1193v540.583s-14.464 217.08 74.871 245.113c131.392 41.231 145.662 2.871 246.311-43.356 192.715-90.241 239.796 31.476 288.326 58.829 71.028 40.295 457.57 152.94 405.36-262.972-14.5-115.5-322.113-216.351 32.888-293.575z" fill="#e1d9ec"/><path d="M72687.676 244.818C72841.676 211.318 72833-.5 72833-.5h-1193v540.583s-14.179 216.816 75.156 244.849c131.392 41.231 145.355 3.582 245.594-42.653 192.599-90.515 240.169 30.297 288.597 57.79 70.923 40.516 458.016 154.097 405.806-261.815-14.5-115.5-322.479-216.212 32.523-293.436z" fill="#e1d9ec"/><path d="M73881.598 245.486C74035.598 211.986 74027-.5 74027-.5h-1193v540.583s-13.904 216.563 75.431 244.596c131.392 41.231 145.059 4.264 244.904-41.977 192.486-90.778 240.528 29.163 288.857 56.79 70.822 40.728 458.446 155.209 406.236-260.703-14.5-115.5-322.831-216.079 32.17-293.303z" fill="#e1d9ec"/><path d="M75075.524 246.129C75229.524 212.629 75221-.5 75221-.5h-1193v540.583s-13.641 216.319 75.694 244.352c131.392 41.231 144.775 4.921 244.242-41.328 192.378-91.03 240.873 28.075 289.108 55.83 70.725 40.933 458.857 156.278 406.647-259.634-14.5-115.5-323.169-215.95 31.833-293.174z" fill="#e1d9ec"/><path d="M76269.452 246.746C76423.452 213.246 76415-.5 76415-.5h-1193v540.583s-13.387 216.085 75.948 244.118c131.392 41.231 144.502 5.551 243.605-40.704 192.274-91.273 241.204 27.029 289.348 54.907 70.632 41.13 459.254 157.305 407.044-258.607-14.5-115.5-323.494-215.827 31.507-293.051z" fill="#e1daec"/><path d="M77463.384 247.34C77617.384 213.84 77609-.5 77609-.5h-1193v540.583s-13.143 215.86 76.192 243.893c131.392 41.231 144.239 6.157 242.992-40.104 192.175-91.506 241.523 26.023 289.579 54.02 70.543 41.319 459.635 158.291 407.425-257.621-14.5-115.5-323.806-215.707 31.196-292.931z" fill="#e0daec"/><path d="M78657.318 247.91C78811.318 214.41 78803-.5 78803-.5h-1193v540.583s-12.909 215.644 76.426 243.677c131.392 41.231 143.987 6.74 242.404-39.528 192.079-91.73 241.829 25.056 289.801 53.167 70.457 41.501 460.001 159.241 407.791-256.671-14.5-115.5-324.106-215.594 30.896-292.818z" fill="#e0daec"/><path d="M79851.254 248.458C80005.254 214.958 79997-.5 79997-.5h-1193v540.583s-12.684 215.436 76.651 243.469c131.392 41.231 143.745 7.3 241.838-38.973 191.988-91.946 242.124 24.126 290.015 52.347 70.375 41.675 460.354 160.153 408.144-255.759-14.5-115.5-324.396-215.485 30.606-292.709z" fill="#e0daec"/><path d="M81045.193 248.986C81199.193 215.486 81191-.5 81191-.5h-1193v540.583s-12.468 215.237 76.867 243.27c131.392 41.231 143.512 7.837 241.295-38.441 191.899-92.154 242.406 23.233 290.22 51.559 70.295 41.843 460.692 161.029 408.482-254.883-14.5-115.5-324.673-215.378 30.329-292.602z" fill="#e0daec"/><path d="M82239.134 249.493C82393.134 215.993 82385-.5 82385-.5h-1193v540.583s-12.26 215.044 77.075 243.077c131.392 41.231 143.288 8.356 240.772-37.928 191.814-92.353 242.679 22.374 290.418 50.801 70.218 42.005 461.017 161.873 408.807-254.039-14.5-115.5-324.939-215.277 30.062-292.501z" fill="#e0daec"/><path d="M83433.078 249.98C83587.078 216.48 83579-.5 83579-.5h-1193v540.583s-12.059 214.86 77.276 242.893c131.392 41.231 143.072 8.853 240.268-37.436 191.732-92.544 242.941 21.548 290.608 50.073 70.145 42.159 461.33 162.683 409.12-253.229-14.5-115.5-325.196-215.18 29.806-292.404z" fill="#e0daec"/><path d="M84627.024 250.448C84781.024 216.948 84773-.5 84773-.5h-1193v540.583s-11.867 214.682 77.468 242.715c131.392 41.231 142.865 9.332 239.785-36.962 191.654-92.729 243.192 20.753 290.79 49.372 70.075 42.309 461.631 163.463 409.421-252.449-14.5-115.5-325.442-215.087 29.56-292.311z" fill="#e0daec"/><path d="M85820.972 250.899C85974.972 217.399 85967-.5 85967-.5h-1193v540.583s-11.682 214.512 77.653 242.545c131.392 41.231 142.666 9.791 239.321-36.508 191.577-92.905 243.433 19.991 290.965 48.7 70.007 42.451 461.92 164.211 409.71-251.701-14.5-115.5-325.679-214.996 29.323-292.22z" fill="#e0daec"/><path d="M87014.921 251.332C87168.921 217.832 87161-.5 87161-.5h-1193v540.583s-11.504 214.347 77.831 242.38c131.392 41.231 142.474 10.234 238.874-36.069 191.505-93.076 243.666 19.256 291.134 48.052 69.941 42.589 462.198 164.931 409.988-250.981-14.5-115.5-325.907-214.909 29.094-292.133z" fill="#e0daec"/><path d="M88208.873 251.748C88362.873 218.248 88355-.5 88355-.5h-1193v540.583s-11.334 214.19 78.001 242.223c131.392 41.231 142.291 10.658 238.445-35.649 191.436-93.24 243.89 18.551 291.296 47.43 69.879 42.722 462.466 165.623 410.256-250.289-14.5-115.5-326.126-214.826 28.875-292.05z" fill="#e0daec"/><path d="M89402.827 252.148C89556.827 218.648 89549-.5 89549-.5h-1193v540.583s-11.169 214.038 78.166 242.071c131.392 41.231 142.113 11.067 238.032-35.245 191.368-93.396 244.104 17.873 291.452 46.832 69.818 42.85 462.722 166.289 410.512-249.623-14.5-115.5-326.337-214.746 28.665-291.97z" fill="#e0daed"/><path d="M90596.782 252.533C90750.782 219.033 90743-.5 90743-.5h-1193v540.583s-11.012 213.892 78.323 241.925c131.392 41.231 141.944 11.46 237.636-34.856 191.304-93.548 244.311 17.222 291.602 46.257 69.76 42.972 462.969 166.929 410.759-248.983-14.5-115.5-326.539-214.669 28.462-291.893z" fill="#e0daed"/><path d="M91790.74 252.902C91944.74 219.402 91937-.5 91937-.5h-1193v540.583s-10.86 213.752 78.475 241.785c131.392 41.231 141.781 11.837 237.255-34.483 191.241-93.693 244.508 16.596 291.745 45.706 69.705 43.089 463.206 167.542 410.996-248.37-14.5-115.5-326.733-214.595 28.269-291.819z" fill="#e0daed"/><path d="M92984.699 253.257C93138.699 219.757 93131-.5 93131-.5h-1193v540.583s-10.714 213.618 78.621 241.651c131.392 41.231 141.623 12.199 236.888-34.125 191.182-93.832 244.7 15.995 291.884 45.175 69.652 43.203 463.434 168.133 411.224-247.779-14.5-115.5-326.92-214.524 28.082-291.748z" fill="#e0daed"/><path d="M94178.659 253.598C94332.659 220.098 94325-.5 94325-.5h-1193v540.583s-10.574 213.489 78.761 241.522c131.392 41.231 141.473 12.547 236.536-33.78 191.126-93.967 244.883 15.416 292.017 44.665 69.6 43.311 463.653 168.7 411.443-247.212-14.5-115.5-327.1-214.456 27.902-291.68z" fill="#e0daed"/><path d="M95372.621 253.925C95526.621 220.425 95519-.5 95519-.5h-1193v540.583s-10.44 213.365 78.895 241.398c131.392 41.231 141.328 12.881 236.199-33.45 191.07-94.095 245.058 14.863 292.144 44.177 69.551 43.415 463.863 169.244 411.653-246.668-14.5-115.5-327.271-214.391 27.73-291.615z" fill="#e0daed"/><path d="M96566.585 254.239C96720.585 220.739 96713-.5 96713-.5h-1193v540.583s-10.311 213.246 79.024 241.279c131.392 41.231 141.189 13.202 235.875-33.132 191.018-94.219 245.227 14.33 292.266 43.707 69.504 43.514 464.065 169.766 411.855-246.146-14.5-115.5-327.437-214.328 27.565-291.552z" fill="#e0daed"/><path d="M97760.55 254.54C97914.55 221.04 97907-.5 97907-.5h-1193v540.583s-10.187 213.132 79.148 241.165c131.392 41.231 141.056 13.509 235.564-32.828 190.967-94.337 245.388 13.819 292.384 43.256 69.458 43.611 464.258 170.268 412.048-245.644-14.5-115.5-327.596-214.268 27.406-291.492z" fill="#e0dbed"/><path d="M98954.517 254.83C99108.517 221.33 99101-.5 99101-.5h-1193v540.583s-10.069 213.022 79.266 241.055c131.392 41.231 140.929 13.805 235.266-32.535 190.919-94.451 245.544 13.329 292.497 42.824 69.415 43.703 464.444 170.748 412.234-245.164-14.5-115.5-327.748-214.209 27.254-291.433z" fill="#e0dbed"/><path d="M100148.485 255.107C100302.485 221.607 100295-.5 100295-.5h-1193v540.583s-9.955 212.917 79.38 240.95c131.392 41.231 140.806 14.088 234.98-32.255 190.872-94.56 245.693 12.859 292.604 42.41 69.374 43.791 464.622 171.209 412.412-244.703-14.5-115.5-327.893-214.154 27.109-291.378z" fill="#e0dbed"/><path d="M101342.454 255.372C101496.454 221.872 101489-.5 101489-.5h-1193v540.583s-9.846 212.816 79.489 240.849c131.392 41.231 140.689 14.359 234.706-31.986 190.828-94.664 245.835 12.409 292.708 42.012 69.333 43.876 464.792 171.652 412.582-244.26-14.5-115.5-328.033-214.102 26.969-291.326z" fill="#e0dbed"/><path d="M102536.424 255.627C102690.424 222.127 102683-.5 102683-.5h-1193v540.583s-9.741 212.72 79.594 240.753c131.392 41.231 140.575 14.619 234.443-31.73 190.785-94.764 245.972 11.978 292.807 41.633 69.295 43.956 464.956 172.074 412.746-243.838-14.5-115.5-328.168-214.05 26.834-291.274z" fill="#e0dbed"/><path d="M103730.396 255.871C103884.396 222.371 103877-.5 103877-.5h-1193v540.583s-9.641 212.628 79.694 240.661c131.392 41.231 140.468 14.867 234.192-31.484 190.744-94.86 246.102 11.565 292.902 41.268 69.258 44.035 465.112 172.48 412.902-243.432-14.5-115.5-328.296-214.001 26.706-291.225z" fill="#e0dbed"/><path d="M104924.369 256.104C105078.369 222.604 105071-.5 105071-.5h-1193v540.583s-9.546 212.539 79.789 240.572c131.392 41.231 140.365 15.106 233.952-31.248 190.705-94.951 246.228 11.17 292.993 40.92 69.223 44.109 465.262 172.868 413.052-243.044-14.5-115.5-328.419-213.955 26.583-291.179z" fill="#e0dbed"/><path d="M106118.343 256.327C106272.343 222.827 106265-.5 106265-.5h-1193v540.583s-9.454 212.455 79.881 240.488c131.392 41.231 140.266 15.333 233.722-31.023 190.667-95.039 246.347 10.792 293.079 40.587 69.19 44.179 465.405 173.238 413.195-242.674-14.5-115.5-328.536-213.91 26.466-291.134z" fill="#e0dbed"/><path d="M107312.319 256.54C107466.319 223.04 107459-.5 107459-.5h-1193v540.583s-9.367 212.374 79.968 240.407c131.392 41.231 140.173 15.551 233.502-30.807 190.632-95.123 246.462 10.431 293.163 40.268 69.157 44.247 465.542 173.592 413.332-242.32-14.5-115.5-328.648-213.867 26.354-291.091z" fill="#e0dbed"/><path d="M108506.295 256.743C108660.295 223.243 108653-.5 108653-.5h-1193v540.583s-9.283 212.297 80.052 240.33c131.392 41.231 140.082 15.758 233.292-30.602 190.598-95.203 246.571 10.087 293.241 39.964 69.127 44.312 465.673 173.931 413.463-241.981-14.5-115.5-328.755-213.827 26.247-291.051z" fill="#e0dbed"/><path d="M109700.273 256.937C109854.273 223.437 109847-.5 109847-.5h-1193v540.583s-9.204 212.223 80.131 240.256c131.392 41.231 139.997 15.957 233.093-30.405 190.565-95.279 246.675 9.757 293.317 39.674 69.097 44.374 465.797 174.253 413.587-241.659-14.5-115.5-328.857-213.788 26.145-291.012z" fill="#e0dbed"/><path d="M110894.251 257.122C111048.251 223.622 111041-.5 111041-.5h-1193v540.583s-9.128 212.153 80.207 240.186c131.392 41.231 139.915 16.145 232.902-30.219 190.534-95.351 246.774 9.445 293.389 39.398 69.07 44.433 465.915 174.561 413.705-241.351-14.5-115.5-328.954-213.751 26.048-290.975z" fill="#e0dbed"/><path d="M112088.231 257.297C112242.231 223.797 112235-.5 112235-.5h-1193v540.583s-9.055 212.087 80.28 240.12c131.392 41.231 139.837 16.324 232.72-30.042 190.504-95.42 246.868 9.147 293.457 39.136 69.043 44.488 466.029 174.853 413.819-241.059-14.5-115.5-329.047-213.717 25.955-290.941z" fill="#e0dbed"/><path d="M113282.212 257.465C113436.212 223.965 113429-.5 113429-.5h-1193v540.583s-8.987 212.023 80.348 240.056c131.392 41.231 139.763 16.496 232.548-29.872 190.476-95.486 246.958 8.863 293.522 38.885 69.019 44.542 466.136 175.132 413.926-240.78-14.5-115.5-329.134-213.683 25.868-290.907z" fill="#e0dbed"/><path d="M114476.193 257.624C114630.193 224.124 114623-.5 114623-.5h-1193v540.583s-8.922 211.963 80.413 239.996c131.392 41.231 139.693 16.658 232.384-29.712 190.45-95.549 247.044 8.594 293.585 38.648 68.994 44.592 466.238 175.396 414.028-240.516-14.5-115.5-329.219-213.651 25.783-290.875z" fill="#e0dbed"/><path d="M115670.176 257.774C115824.176 224.274 115817-.5 115817-.5h-1193v540.583s-8.86 211.906 80.475 239.939c131.392 41.231 139.627 16.812 232.229-29.559 190.424-95.609 247.124 8.338 293.643 38.422 68.971 44.64 466.334 175.646 414.124-240.266-14.5-115.5-329.297-213.621 25.705-290.845z" fill="#e0dbed"/><path d="M116864.159 257.917C117018.159 224.417 117011-.5 117011-.5h-1193v540.583s-8.801 211.852 80.534 239.885c131.392 41.231 139.563 16.957 232.081-29.415 190.4-95.665 247.201 8.096 293.699 38.209 68.95 44.686 466.426 175.883 414.216-240.029-14.5-115.5-329.373-213.592 25.629-290.816z" fill="#e0dbed"/><path d="M118058.144 258.052C118212.144 224.552 118205-.5 118205-.5h-1193v540.583s-8.746 211.801 80.589 239.834c131.392 41.231 139.504 17.095 231.942-29.279 190.378-95.717 247.274 7.868 293.751 38.007 68.93 44.729 466.513 176.108 414.303-239.804-14.5-115.5-329.443-213.565 25.559-290.789z" fill="#e0dbed"/><path d="M119252.129 258.179C119406.129 224.679 119399-.5 119399-.5h-1193v540.583s-8.693 211.753 80.642 239.786c131.392 41.231 139.447 17.225 231.81-29.151 190.356-95.767 247.342 7.652 293.801 37.817 68.91 44.77 466.595 176.32 414.385-239.592-14.5-115.5-329.511-213.54 25.491-290.764z" fill="#e0dbed"/><path d="M120446.115 258.299C120600.115 224.799 120593-.5 120593-.5h-1193v540.583s-8.644 211.707 80.691 239.74c131.392 41.231 139.394 17.348 231.687-29.029 190.336-95.814 247.406 7.449 293.847 37.638 68.893 44.807 466.672 176.519 414.462-239.393-14.5-115.5-329.574-213.516 25.428-290.74z" fill="#dfdbed"/><path d="M121640.102 258.412C121794.102 224.912 121787-.5 121787-.5h-1193v540.583s-8.598 211.664 80.737 239.697c131.392 41.231 139.345 17.463 231.571-28.915 190.317-95.859 247.466 7.258 293.891 37.47 68.876 44.843 466.744 176.706 414.534-239.206-14.5-115.5-329.633-213.493 25.369-290.717z" fill="#dfdbed"/><path d="M122834.09 258.518C122988.09 225.018 122981-.5 122981-.5h-1193v540.583s-8.555 211.624 80.78 239.657c131.392 41.231 139.298 17.571 231.462-28.808 190.299-95.9 247.524 7.079 293.932 37.311 68.86 44.877 466.812 176.883 414.602-239.029-14.5-115.5-329.688-213.472 25.314-290.696z" fill="#dfdbed"/><path d="M124028.078 258.617C124182.078 225.117 124175-.5 124175-.5h-1193v540.583s-8.514 211.587 80.821 239.62c131.392 41.231 139.254 17.671 231.36-28.709 190.282-95.939 247.576 6.912 293.971 37.164 68.844 44.908 466.875 177.047 414.665-238.865-14.5-115.5-329.741-213.452 25.261-290.676z" fill="#dfdbed"/><path d="M125222.068 258.709C125376.068 225.209 125369-.5 125369-.5h-1193v540.583s-8.476 211.552 80.859 239.585c131.392 41.231 139.213 17.766 231.264-28.615 190.268-95.976 247.626 6.755 294.007 37.026 68.831 44.937 466.935 177.2 414.725-238.712-14.5-115.5-329.789-213.434 25.213-290.658z" fill="#dfdbed"/><path d="M126416.058 258.794C126570.058 225.294 126563-.5 126563-.5h-1193v540.583s-8.441 211.52 80.894 239.553c131.392 41.231 139.175 17.852 231.176-28.529 190.253-96.009 247.672 6.61 294.04 36.898 68.819 44.965 466.99 177.342 414.78-238.57-14.5-115.5-329.834-213.417 25.168-290.641z" fill="#dfdbed"/><path d="M127610.049 258.873C127764.049 225.373 127757-.5 127757-.5h-1193v540.583s-8.409 211.49 80.926 239.523c131.392 41.231 139.141 17.933 231.095-28.449 190.24-96.041 247.715 6.476 294.071 36.78 68.806 44.99 467.04 177.473 414.83-238.439-14.5-115.5-329.875-213.401 25.127-290.625z" fill="#dfdbed"/><path d="M128804.04 258.946C128958.04 225.446 128951-.5 128951-.5h-1193v540.583s-8.379 211.462 80.956 239.495c131.392 41.231 139.109 18.008 231.02-28.375 190.228-96.069 247.753 6.352 294.099 36.671 68.795 45.013 467.087 177.595 414.877-238.317-14.5-115.5-329.914-213.387 25.088-290.611z" fill="#dfdbed"/><path d="M129998.032 259.013C130152.032 225.513 130145-.5 130145-.5h-1193v540.583s-8.351 211.437 80.984 239.47c131.392 41.231 139.079 18.076 230.95-28.308 190.217-96.095 247.79 6.239 294.126 36.571 68.785 45.035 467.13 177.706 414.92-238.206-14.5-115.5-329.95-213.373 25.052-290.597z" fill="#dfdbee"/><path d="M131192.025 259.073C131346.025 225.573 131339-.5 131339-.5h-1193v540.583s-8.326 211.414 81.009 239.447c131.392 41.231 139.052 18.138 230.888-28.247 190.206-96.119 247.822 6.137 294.149 36.481 68.776 45.054 467.169 177.806 414.959-238.106-14.5-115.5-329.982-213.361 25.02-290.585z" fill="#dfdbee"/><path d="M132386.019 259.128C132540.019 225.628 132533-.5 132533-.5h-1193v540.583s-8.304 211.393 81.031 239.426c131.392 41.231 139.028 18.194 230.832-28.191 190.197-96.141 247.851 6.044 294.17 36.398 68.768 45.072 467.204 177.898 414.994-238.014-14.5-115.5-330.01-213.35 24.992-290.574z" fill="#dfdbee"/><path d="M133580.013 259.177C133734.013 225.677 133727-.5 133727-.5h-1193v540.583s-8.284 211.374 81.051 239.407c131.392 41.231 139.006 18.244 230.781-28.141 190.189-96.16 247.878 5.961 294.19 36.325 68.76 45.087 467.235 177.98 415.025-237.932-14.5-115.5-330.036-213.341 24.966-290.565z" fill="#dfdbee"/><path d="M134774.008 259.221C134928.008 225.721 134921-.5 134921-.5h-1193v540.583s-8.266 211.358 81.069 239.391c131.392 41.231 138.987 18.288 230.736-28.098 190.182-96.177 247.901 5.887 294.207 36.261 68.754 45.1 467.263 178.051 415.053-237.861-14.5-115.5-330.059-213.331 24.943-290.555z" fill="#dfdbee"/><path d="M135968.004 259.259C136122.004 225.759 136115-.5 136115-.5h-1193v540.583s-8.25 211.344 81.085 239.377c131.392 41.231 138.97 18.327 230.697-28.06 190.175-96.192 247.921 5.823 294.221 36.204 68.748 45.113 467.288 178.115 415.078-237.797-14.5-115.5-330.079-213.324 24.923-290.548z" fill="#dfdbee"/><path d="M137162 259.291c154-33.5 147-259.791 147-259.791h-1193v540.583s-8.237 211.331 81.098 239.364c131.392 41.231 138.956 18.361 230.664-28.026 190.169-96.205 247.938 5.767 294.233 36.155 68.744 45.123 467.309 178.169 415.099-237.743-14.5-115.5-330.096-213.318 24.906-290.542z" fill="#dfdcee"/><path d="M138355.997 259.318C138509.997 225.818 138503-.5 138503-.5h-1193v540.583s-8.226 211.321 81.109 239.354c131.392 41.231 138.944 18.388 230.636-27.999 190.165-96.215 247.953 5.721 294.244 36.114 68.739 45.132 467.326 178.215 415.116-237.697-14.5-115.5-330.11-213.313 24.892-290.537z" fill="#dfdcee"/><path d="M139549.994 259.34C139703.994 225.84 139697-.5 139697-.5h-1193v540.583s-8.217 211.313 81.118 239.346c131.392 41.231 138.934 18.41 230.613-27.977 190.161-96.224 247.965 5.684 294.253 36.081 68.736 45.139 467.34 178.251 415.13-237.661-14.5-115.5-330.122-213.308 24.88-290.532z" fill="#dfdcee"/><path d="M140743.992 259.357C140897.992 225.857 140891-.5 140891-.5h-1193v540.583s-8.21 211.306 81.125 239.339c131.392 41.231 138.927 18.428 230.595-27.96 190.159-96.23 247.975 5.656 294.26 36.057 68.733 45.144 467.351 178.279 415.141-237.633-14.5-115.5-330.131-213.305 24.871-290.529z" fill="#dfdcee"/><path d="M141937.991 259.369C142091.991 225.869 142085-.5 142085-.5h-1193v540.583s-8.205 211.302 81.13 239.335c131.392 41.231 138.921 18.44 230.583-27.948 190.157-96.235 247.981 5.635 294.264 36.038 68.732 45.148 467.359 178.299 415.149-237.613-14.5-115.5-330.137-213.302 24.865-290.526z" fill="#dfdcee"/><path d="M143131.99 259.377C143285.99 225.877 143279-.5 143279-.5h-1193v540.583s-8.202 211.299 81.133 239.332c131.392 41.231 138.918 18.447 230.575-27.94 190.156-96.239 247.985 5.623 294.268 36.027 68.73 45.15 467.363 178.311 415.153-237.601-14.5-115.5-330.141-213.3 24.861-290.524z" fill="#dfdcee"/><path d="M144325.99 259.379C144479.99 225.879 144473-.5 144473-.5h-1193v540.583s-8.201 211.298 81.134 239.331c131.392 41.231 138.917 18.45 230.573-27.938 190.155-96.239 247.986 5.619 294.268 36.024 68.73 45.151 467.365 178.315 415.155-237.597-14.5-115.5-330.142-213.3 24.86-290.524z" fill="#dfdcee"/><path d="M145519.991 259.369C145673.991 225.869 145667-.5 145667-.5h-1193v540.583s-8.205 211.302 81.13 239.335c131.392 41.231 138.921 18.44 230.583-27.948 190.157-96.235 247.981 5.635 294.264 36.038 68.732 45.148 467.359 178.299 415.149-237.613-14.5-115.5-330.137-213.302 24.865-290.526z" fill="#dfdcee"/><path d="M146713.994 259.34C146867.994 225.84 146861-.5 146861-.5h-1193v540.583s-8.217 211.313 81.118 239.346c131.392 41.231 138.934 18.41 230.613-27.978 190.162-96.223 247.965 5.685 294.253 36.082 68.736 45.139 467.34 178.251 415.13-237.661-14.5-115.5-330.122-213.308 24.88-290.532z" fill="#dfdcee"/><path d="M147908 259.29c154-33.5 147-259.79 147-259.79h-1193v540.583s-8.237 211.332 81.098 239.365c131.392 41.231 138.956 18.359 230.664-28.028 190.17-96.204 247.938 5.769 294.234 36.157 68.743 45.122 467.308 178.167 415.098-237.745-14.5-115.5-330.096-213.318 24.906-290.542z" fill="#dfdcee"/><path d="M149102.009 259.218C149256.009 225.718 149249-.5 149249-.5h-1193v540.583s-8.267 211.359 81.068 239.392c131.392 41.231 138.988 18.286 230.739-28.1 190.182-96.176 247.9 5.891 294.205 36.264 68.754 45.1 467.262 178.048 415.052-237.864-14.5-115.5-330.057-213.333 24.945-290.557z" fill="#dfdcee"/><path d="M150296.02 259.124C150450.02 225.624 150443-.5 150443-.5h-1193v540.583s-8.306 211.395 81.029 239.428c131.392 41.231 139.03 18.189 230.837-28.196 190.197-96.139 247.849 6.052 294.168 36.405 68.769 45.07 467.201 177.891 414.991-238.021-14.5-115.5-330.007-213.351 24.995-290.575z" fill="#dfdcee"/><path d="M151490.033 259.005C151644.033 225.505 151637-.5 151637-.5h-1193v540.583s-8.355 211.44 80.98 239.473c131.392 41.231 139.083 18.068 230.959-28.316 190.218-96.092 247.786 6.253 294.123 36.583 68.786 45.032 467.124 177.693 414.914-238.219-14.5-115.5-329.945-213.375 25.057-290.599z" fill="#dfdcee"/><path d="M152684.05 258.86c154-33.5 146.95-259.36 146.95-259.36h-1193v540.583s-8.414 211.495 80.921 239.528c131.392 41.231 139.146 17.92 231.108-28.463 190.242-96.035 247.708 6.499 294.066 36.8 68.808 44.986 467.032 177.452 414.822-238.46-14.5-115.5-329.869-213.404 25.133-290.628z" fill="#dfdcee"/><path d="M153878.07 258.689C154032.07 225.189 154025-.5 154025-.5h-1193v540.583s-8.484 211.56 80.851 239.593c131.392 41.231 139.222 17.745 231.285-28.636 190.271-95.968 247.615 6.789 293.999 37.056 68.834 44.931 466.922 177.167 414.712-238.745-14.5-115.5-329.779-213.438 25.223-290.662z" fill="#dfdcee"/><path d="M155072.093 258.489C155226.093 224.989 155219-.5 155219-.5h-1193v540.583s-8.566 211.635 80.769 239.668c131.392 41.231 139.31 17.541 231.491-28.837 190.304-95.889 247.508 7.128 293.921 37.354 68.864 44.868 466.794 176.835 414.584-239.077-14.5-115.5-329.674-213.478 25.328-290.702z" fill="#dfdcee"/><path d="M156266.12 258.259C156420.12 224.759 156413-.5 156413-.5h-1193v540.583s-8.661 211.723 80.674 239.756c131.392 41.231 139.412 17.306 231.729-29.071 190.343-95.798 247.384 7.518 293.831 37.699 68.899 44.794 466.646 176.452 414.436-239.46-14.5-115.5-329.552-213.524 25.45-290.748z" fill="#dfdcee"/><path d="M157460.15 257.997C157614.15 224.497 157607-.5 157607-.5h-1193v540.583s-8.768 211.822 80.567 239.855c131.392 41.231 139.528 17.038 231.998-29.335 190.387-95.696 247.244 7.962 293.73 38.09 68.938 44.711 466.478 176.016 414.268-239.896-14.5-115.5-329.415-213.576 25.587-290.8z" fill="#dfdcee"/><path d="M158654.184 257.701C158808.184 224.201 158801-.5 158801-.5h-1193v540.583s-8.89 211.934 80.445 239.967c131.392 41.231 139.659 16.737 232.304-29.634 190.437-95.579 247.085 8.463 293.615 38.532 68.982 44.617 466.287 175.525 414.077-240.387-14.5-115.5-329.259-213.636 25.743-290.86z" fill="#dfdcee"/><path d="M159848.223 257.37C160002.223 223.87 159995-.5 159995-.5h-1193v540.583s-9.026 212.059 80.309 240.092c131.392 41.231 139.805 16.399 232.646-29.968 190.492-95.449 246.907 9.024 293.485 39.027 69.033 44.512 466.075 174.974 413.865-240.938-14.5-115.5-329.084-213.702 25.918-290.926z" fill="#dfdcee"/><path d="M161042.265 257c154-33.5 146.735-257.5 146.735-257.5h-1193v540.583s-9.177 212.199 80.158 240.232c131.392 41.231 139.968 16.022 233.026-30.341 190.554-95.304 246.709 9.65 293.342 39.579 69.088 44.394 465.838 174.359 413.628-241.553-14.5-115.5-328.891-213.776 26.111-291z" fill="#dfdcee"/><path d="M162236.313 256.591C162390.313 223.091 162383-.5 162383-.5h-1193v540.583s-9.345 212.354 79.99 240.387c131.392 41.231 140.149 15.604 233.448-30.755 190.623-95.143 246.49 10.344 293.183 40.191 69.149 44.264 465.575 173.679 413.365-242.233-14.5-115.5-328.675-213.858 26.327-291.082z" fill="#dfdcee"/><path d="M163430.365 256.14C163584.365 222.64 163577-.5 163577-.5h-1193v540.583s-9.531 212.526 79.804 240.559c131.392 41.231 140.349 15.142 233.915-31.212 190.698-94.966 246.247 11.109 293.006 40.866 69.218 44.12 465.285 172.927 413.075-242.985-14.5-115.5-328.437-213.947 26.565-291.171z" fill="#dfdcee"/><path d="M164624.422 255.643C164778.422 222.143 164771-.5 164771-.5h-1193v540.583s-9.735 212.714 79.6 240.747c131.392 41.231 140.569 14.635 234.427-31.714 190.782-94.77 245.981 11.951 292.813 41.609 69.293 43.962 464.967 172.101 412.757-243.811-14.5-115.5-328.176-214.047 26.825-291.271z" fill="#dfdcee"/><path d="M165818.485 255.099C165972.485 221.599 165965-.5 165965-.5h-1193v540.583s-9.958 212.92 79.377 240.953c131.392 41.231 140.809 14.08 234.988-32.263 190.873-94.557 245.688 12.872 292.601 42.421 69.375 43.789 464.617 171.197 412.407-244.715-14.5-115.5-327.889-214.156 27.112-291.38z" fill="#dfdcee"/><path d="M167012.554 254.505C167166.554 221.005 167159-.5 167159-.5h-1193v540.583s-10.202 213.145 79.133 241.178c131.392 41.231 141.072 13.473 235.601-32.864 190.973-94.322 245.37 13.88 292.37 43.31 69.464 43.6 464.235 170.208 412.025-245.704-14.5-115.5-327.577-214.274 27.425-291.498z" fill="#dfdcee"/><path d="M168206.629 253.857C168360.629 220.357 168353-.5 168353-.5h-1193v540.583s-10.468 213.39 78.867 241.423c131.392 41.231 141.358 12.813 236.269-33.517 191.082-94.069 245.022 14.976 292.118 44.277 69.561 43.393 463.82 169.132 411.61-246.78-14.5-115.5-327.237-214.405 27.765-291.629z" fill="#dfdcee"/><path d="M169400.71 253.155C169554.71 219.655 169547-.5 169547-.5h-1193v540.583s-10.756 213.657 78.579 241.69c131.392 41.231 141.669 12.094 236.994-34.228 191.199-93.792 244.644 16.167 291.843 45.327 69.668 43.17 463.369 167.964 411.159-247.948-14.5-115.5-326.866-214.545 28.135-291.769z" fill="#dfdcee"/><path d="M170594.799 252.394C170748.799 218.894 170741-.5 170741-.5h-1193v540.583s-11.068 213.945 78.267 241.978c131.392 41.231 142.005 11.318 237.778-34.997 191.327-93.493 244.236 17.457 291.548 46.465 69.781 42.928 462.88 166.698 410.67-249.214-14.5-115.5-326.466-214.697 28.536-291.921z" fill="#dfdcee"/><path d="M171788.894 251.573C171942.894 218.073 171935-.5 171935-.5h-1193v540.583s-11.406 214.256 77.929 242.289c131.392 41.231 142.369 10.48 238.626-35.826 191.465-93.171 243.795 18.848 291.228 47.692 69.905 42.666 462.353 165.332 410.143-250.58-14.5-115.5-326.034-214.861 28.968-292.085z" fill="#dfdcee"/><path d="M172982.996 250.689C173136.996 217.189 173129-.5 173129-.5h-1193v540.583s-11.769 214.591 77.566 242.624c131.392 41.231 142.759 9.577 239.538-36.72 191.613-92.822 243.321 20.347 290.884 49.014 70.038 42.385 461.785 163.862 409.575-252.05-14.5-115.5-325.569-215.038 29.433-292.262z" fill="#dfdcee"/><path d="M174177.106 249.74C174331.106 216.24 174323-.5 174323-.5h-1193v540.583s-12.158 214.951 77.177 242.984c131.392 41.231 143.178 8.608 240.516-37.679 191.772-92.45 242.812 21.954 290.514 50.432 70.182 42.083 461.177 162.284 408.967-253.628-14.5-115.5-325.07-215.228 29.932-292.452z" fill="#dfdcee"/><path d="M175371.223 248.727C175525.223 215.227 175517-.5 175517-.5h-1193v540.583s-12.574 215.335 76.761 243.368c131.392 41.231 143.626 7.573 241.562-38.703 191.942-92.051 242.267 23.672 290.119 51.947 70.334 41.76 460.526 160.598 408.316-255.314-14.5-115.5-324.537-215.43 30.465-292.654z" fill="#dfdcee"/><path d="M176565.348 247.647C176719.348 214.147 176711-.5 176711-.5h-1193v540.583s-13.017 215.744 76.318 243.777c131.392 41.231 144.104 6.471 242.675-39.794 192.123-91.627 241.688 25.502 289.699 53.56 70.497 41.417 459.833 158.804 407.623-257.108-14.5-115.5-323.969-215.647 31.033-292.871z" fill="#dfdcee"/><path d="M177759.48 246.503C177913.48 213.003 177905-.5 177905-.5h-1193v540.583s-13.487 216.177 75.848 244.21c131.392 41.231 144.61 5.303 243.856-40.949 192.315-91.178 241.073 27.44 289.253 55.27 70.669 41.052 459.098 156.9 406.888-259.012-14.5-115.5-323.366-215.875 31.635-293.099z" fill="#dfdcee"/><path d="M178953.62 245.296C179107.62 211.796 179099-.5 179099-.5h-1193v540.583s-13.982 216.635 75.353 244.668c131.392 41.231 145.143 4.07 245.1-42.17 192.518-90.702 240.426 29.486 288.783 57.075 70.851 40.668 458.324 154.893 406.114-261.019-14.5-115.5-322.731-216.117 32.27-293.341z" fill="#dfdcee"/><path d="M180147.767 244.029C180301.767 210.529 180293-.5 180293-.5h-1193v540.583s-14.502 217.115 74.833 245.148c131.392 41.231 145.703 2.777 246.407-43.449 192.73-90.205 239.746 31.632 288.29 58.967 71.041 40.265 457.51 152.786 405.3-263.126-14.5-115.5-322.065-216.37 32.937-293.594z" fill="#dfdcee"/><path d="M181341.92 242.708C181495.92 209.208 181487-.5 181487-.5h-1193v540.583s-15.045 217.615 74.29 245.648c131.392 41.231 146.287 1.429 247.77-44.784 192.952-89.686 239.037 33.871 287.776 60.942 71.24 39.845 456.661 150.59 404.451-265.322-14.5-115.5-321.369-216.635 33.633-293.859z" fill="#dfdcee"/><path d="M182536.078 241.339C182690.078 207.839 182681-.5 182681-.5h-1193v540.583s-15.607 218.134 73.728 246.167c131.392 41.231 146.893.031 249.183-46.168 193.182-89.147 238.301 36.192 287.242 62.989 71.446 39.409 455.782 148.312 403.572-267.6-14.5-115.5-320.648-216.908 34.353-294.132z" fill="#dfdcee"/><path d="M183730.241 239.929C183884.241 206.429 183875-.5 183875-.5h-1193v540.583s-16.185 218.668 73.15 246.701c131.392 41.231 147.515-1.409 250.636-47.592 193.419-88.593 237.545 38.581 286.693 65.096 71.659 38.96 454.878 145.967 402.668-269.945-14.5-115.5-319.907-217.19 35.094-294.414z" fill="#dfdcee"/><path d="M184924.408 238.488C185078.408 204.988 185069-.5 185069-.5h-1193v540.583s-16.777 219.215 72.558 247.248c131.392 41.231 148.153-2.881 252.123-49.049 193.661-88.027 236.771 41.023 286.132 67.25 71.876 38.501 453.952 143.57 401.742-272.342-14.5-115.5-319.148-217.478 35.853-294.702z" fill="#dfdcee"/><path d="M186118.578 237.025C186272.578 203.525 186263-.5 186263-.5h-1193v540.583s-17.378 219.769 71.957 247.802c131.392 41.231 148.8-4.375 253.633-50.527 193.906-87.452 235.986 43.503 285.562 69.437 72.096 38.036 453.013 141.137 400.803-274.775-14.5-115.5-318.379-217.771 36.623-294.995z" fill="#dfdcee"/><path d="M187312.748 235.549C187466.748 202.049 187457-.5 187457-.5h-1193v540.583s-17.984 220.328 71.351 248.361c131.392 41.231 149.453-5.881 255.155-52.018 194.154-86.872 235.194 46.004 284.988 71.643 72.318 37.566 452.065 138.682 399.855-277.23-14.5-115.5-317.602-218.066 37.399-295.29z" fill="#dfdcee"/><path d="M188506.919 234.071C188660.919 200.571 188651-.5 188651-.5h-1193v540.583s-18.59 220.888 70.745 248.921c131.392 41.231 150.105-7.39 256.679-53.512 194.402-86.29 234.4 48.509 284.412 73.852 72.541 37.096 451.116 136.225 398.906-279.687-14.5-115.5-316.824-218.362 38.177-295.586z" fill="#dfdcee"/><path d="M189701.09 232.601C189855.09 199.101 189845-.5 189845-.5h-1193v540.583s-19.194 221.446 70.141 249.479c131.392 41.231 150.756-8.892 258.197-54.998 194.648-85.713 233.61 51 283.838 76.05 72.763 36.627 450.173 133.778 397.963-282.134-14.5-115.5-316.05-218.655 38.951-295.879z" fill="#dfdcee"/><path d="M190895.258 231.145C191049.258 197.645 191039-.5 191039-.5h-1193v540.583s-19.791 221.997 69.544 250.03c131.392 41.231 151.399-10.378 259.697-56.469 194.893-85.14 232.83 53.467 283.272 78.226 72.982 36.164 449.238 131.358 397.028-284.554-14.5-115.5-315.284-218.947 39.717-296.171z" fill="#dfdcee"/><path d="M192089.424 229.713C192243.424 196.213 192233-.5 192233-.5h-1193v540.583s-20.379 222.54 68.956 250.573c131.392 41.231 152.032-11.841 261.175-57.916 195.133-84.578 232.06 55.894 282.714 80.366 73.198 35.708 448.318 128.976 396.108-286.936-14.5-115.5-314.53-219.233 40.471-296.457z" fill="#dfdcee"/><path d="M193283.586 228.309C193437.586 194.809 193427-.5 193427-.5h-1193v540.583s-20.956 223.072 68.379 251.105c131.392 41.231 152.653-13.274 262.624-59.335 195.368-84.025 231.307 58.274 282.167 82.465 73.409 35.261 447.417 126.641 395.207-289.271-14.5-115.5-313.792-219.514 41.209-296.738z" fill="#dfdcee"/><path d="M194477.745 226.94C194631.745 193.44 194621-.5 194621-.5h-1193v540.583s-21.518 223.591 67.817 251.624c131.392 41.231 153.259-14.673 264.036-60.719 195.599-83.487 230.572 60.595 281.634 84.512 73.615 34.826 446.538 124.364 394.328-291.548-14.5-115.5-313.071-219.789 41.93-297.012z" fill="#dfdcee"/><path d="M195671.899 225.607C195825.899 192.107 195815-.5 195815-.5h-1193v540.583s-22.065 224.096 67.27 252.129c131.392 41.231 153.848-16.033 265.411-62.066 195.822-82.963 229.856 62.854 281.115 86.504 73.816 34.401 445.682 122.148 393.472-293.764-14.5-115.5-312.37-220.055 42.631-297.279z" fill="#dfdcee"/><path d="M196866.049 224.315C197020.049 190.815 197009-.5 197009-.5h-1193v540.583s-22.595 224.586 66.74 252.619c131.392 41.231 154.418-17.353 266.744-63.372 196.038-82.455 229.162 65.043 280.611 88.436 74.011 33.99 444.853 119.998 392.643-295.914-14.5-115.5-311.69-220.313 43.311-297.537z" fill="#dfdcee"/><path d="M198060.194 223.064C198214.194 189.564 198203-.5 198203-.5h-1193v540.583s-23.109 225.06 66.226 253.093c131.392 41.231 154.972-18.63 268.034-64.636 196.248-81.963 228.491 67.163 280.125 90.305 74.199 33.592 444.049 117.918 391.839-297.994-14.5-115.5-311.031-220.563 43.97-297.787z" fill="#dfdcee"/><path d="M199254.333 221.856C199408.333 188.356 199397-.5 199397-.5h-1193v540.583s-23.605 225.517 65.73 253.55c131.392 41.231 155.506-19.862 269.28-65.855 196.451-81.489 227.843 69.209 279.655 92.109 74.38 33.208 443.274 115.91 391.064-300.002-14.5-115.5-310.396-220.805 44.604-298.029z" fill="#dfdcee"/><path d="M200448.468 220.692C200602.468 187.192 200591-.5 200591-.5h-1193v540.583s-24.083 225.959 65.252 253.992c131.392 41.231 156.021-21.052 270.482-67.033 196.646-81.031 227.217 71.183 279.2 93.851 74.556 32.837 442.527 113.972 390.317-301.94-14.5-115.5-309.784-221.037 45.217-298.261z" fill="#dfdcee"/><path d="M201642.598 219.57C201796.598 186.07 201785-.5 201785-.5h-1193v540.583s-24.543 226.384 64.792 254.417c131.392 41.231 156.516-22.198 271.639-68.167 196.834-80.59 226.615 73.085 278.763 95.528 74.725 32.48 441.806 112.107 389.596-303.805-14.5-115.5-309.193-221.262 45.808-298.486z" fill="#dfdcee"/><path d="M202836.723 218.49C202990.723 184.99 202979-.5 202979-.5h-1193v540.583s-24.987 226.793 64.348 254.826c131.392 41.231 156.994-23.3 272.753-69.258 197.016-80.165 226.036 74.915 278.343 97.142 74.888 32.136 441.113 110.311 388.903-305.601-14.5-115.5-308.625-221.478 46.376-298.702z" fill="#dfdcee"/><path d="M204030.843 217.451C204184.843 183.951 204173-.5 204173-.5h-1193v540.583s-25.413 227.187 63.922 255.22c131.392 41.231 157.453-24.361 273.824-70.308 197.19-79.757 225.478 76.675 277.939 98.695 75.044 31.805 440.445 108.583 388.235-307.329-14.5-115.5-308.077-221.686 46.923-298.91z" fill="#dfdcee"/><path d="M205224.959 216.453C205378.959 182.953 205367-.5 205367-.5h-1193v540.583s-25.823 227.565 63.512 255.598c131.392 41.231 157.895-25.38 274.854-71.316 197.358-79.365 224.942 78.367 277.55 100.186 75.194 31.488 439.805 106.923 387.595-308.989-14.5-115.5-307.553-221.885 47.448-299.109z" fill="#dfdcee"/><path d="M206419.07 215.494C206573.07 181.994 206561-.5 206561-.5h-1193v540.583s-26.217 227.928 63.118 255.961c131.392 41.231 158.319-26.359 275.844-72.285 197.518-78.988 224.427 79.993 277.176 101.621 75.339 31.182 439.189 105.327 386.979-310.585-14.5-115.5-307.048-222.077 47.953-299.301z" fill="#dfdcee"/><path d="M207613.177 214.572C207767.177 181.072 207755-.5 207755-.5h-1193v540.583s-26.595 228.278 62.74 256.311c131.392 41.231 158.726-27.301 276.794-73.217 197.674-78.625 223.933 81.555 276.818 102.998 75.477 30.889 438.597 103.794 386.387-312.118-14.5-115.5-306.563-222.261 48.438-299.485z" fill="#dfdcee"/><path d="M208807.279 213.687C208961.279 180.187 208949-.5 208949-.5h-1193v540.583s-26.959 228.613 62.376 256.646c131.392 41.231 159.118-28.204 277.708-74.111 197.822-78.277 223.457 83.055 276.473 104.321 75.61 30.607 438.028 102.322 385.818-313.59-14.5-115.5-306.097-222.438 48.904-299.662z" fill="#dfdcee"/><path d="M210001.378 212.836C210155.378 179.336 210143-.5 210143-.5h-1193v540.583s-27.308 228.935 62.027 256.968c131.392 41.231 159.494-29.072 278.585-74.97 197.965-77.943 223.001 84.496 276.142 105.592 75.738 30.337 437.482 100.908 385.272-315.004-14.5-115.5-305.649-222.609 49.352-299.833z" fill="#dfdcee"/><path d="M211195.472 212.019C211349.472 178.519 211337-.5 211337-.5h-1193v540.583s-27.643 229.245 61.692 257.278c131.392 41.231 159.855-29.907 279.428-75.796 198.101-77.622 222.562 85.88 275.823 106.813 75.862 30.077 436.958 99.55 384.748-316.362-14.5-115.5-305.219-222.773 49.781-299.997z" fill="#dfdcee"/><path d="M212389.563 211.235C212543.563 177.735 212531-.5 212531-.5h-1193v540.583s-27.965 229.542 61.37 257.575c131.392 41.231 160.201-30.708 280.237-76.589 198.233-77.313 222.141 87.21 275.517 107.986 75.98 29.827 436.455 98.245 384.245-317.667-14.5-115.5-304.807-222.929 50.194-300.153z" fill="#dfdcee"/><path d="M213583.65 210.481C213737.65 176.981 213725-.5 213725-.5h-1193v540.583s-28.274 229.828 61.061 257.861c131.392 41.231 160.534-31.477 281.014-77.351 198.359-77.017 221.736 88.488 275.224 109.113 76.093 29.587 435.971 96.991 383.761-318.921-14.5-115.5-304.41-223.08 50.59-300.304z" fill="#dfdcee"/><path d="M214777.734 209.757C214931.734 176.257 214919-.5 214919-.5h-1193v540.583s-28.572 230.102 60.763 258.135c131.392 41.231 160.855-32.216 281.762-78.082 198.481-76.733 221.347 89.714 274.942 110.195 76.202 29.356 435.505 95.787 383.295-320.125-14.5-115.5-304.029-223.225 50.972-300.449z" fill="#dfdcee"/><path d="M215971.814 209.061C216125.814 175.561 216113-.5 216113-.5h-1193v540.583s-28.857 230.366 60.478 258.399c131.392 41.231 161.162-32.927 282.479-78.785 198.597-76.459 220.974 90.893 274.671 111.234 76.307 29.135 435.059 94.63 382.849-321.282-14.5-115.5-303.663-223.364 51.337-300.588z" fill="#dfdcee"/><path d="M217165.892 208.393C217319.892 174.893 217307-.5 217307-.5h-1193v540.583s-29.132 230.619 60.203 258.652c131.392 41.231 161.458-33.609 283.169-79.461 198.71-76.196 220.615 92.027 274.411 112.234 76.408 28.923 434.629 93.518 382.419-322.394-14.5-115.5-303.311-223.497 51.69-300.721z" fill="#dfdcee"/><path d="M218359.966 207.75C218513.966 174.25 218501-.5 218501-.5h-1193v540.583s-29.395 230.863 59.94 258.896c131.392 41.231 161.742-34.266 283.831-80.11 198.818-75.944 220.27 93.115 274.16 113.194 76.505 28.718 434.218 92.449 382.008-323.463-14.5-115.5-302.973-223.626 52.027-300.85z" fill="#dfdcee"/><path d="M219554.038 207.133C219708.038 173.633 219695-.5 219695-.5h-1193v540.583s-29.649 231.097 59.686 259.13c131.392 41.231 162.015-34.896 284.468-80.734 198.922-75.701 219.939 94.161 273.92 114.117 76.598 28.521 433.821 91.422 381.611-324.49-14.5-115.5-302.648-223.749 52.353-300.973z" fill="#dfdcee"/><path d="M220748.106 206.539C220902.106 173.039 220889-.5 220889-.5h-1193v540.583s-29.893 231.322 59.442 259.355c131.392 41.231 162.278-35.502 285.081-81.334 199.021-75.468 219.62 95.167 273.689 115.004 76.687 28.332 433.44 90.436 381.23-325.476-14.5-115.5-302.336-223.869 52.664-301.093z" fill="#dfdcee"/><path d="M221942.172 205.969C222096.172 172.469 222083-.5 222083-.5h-1193v540.583s-30.127 231.538 59.208 259.571c131.392 41.231 162.53-36.085 285.669-81.91 199.117-75.244 219.314 96.134 273.467 115.857 76.773 28.15 433.074 89.486 380.864-326.426-14.5-115.5-302.036-223.982 52.964-301.206z" fill="#dfdcee"/><path d="M223136.236 205.421C223290.236 171.921 223277-.5 223277-.5h-1193v540.583s-30.352 231.746 58.983 259.779c131.392 41.231 162.772-36.645 286.235-82.465 199.208-75.028 219.019 97.064 273.253 116.677 76.855 27.976 432.721 88.574 380.511-327.338-14.5-115.5-301.746-224.091 53.254-301.315z" fill="#dfdcee"/><path d="M224330.297 204.893C224484.297 171.393 224471-.5 224471-.5h-1193v540.583s-30.568 231.945 58.767 259.978c131.392 41.231 163.005-37.182 286.778-82.997 199.297-74.82 218.737 97.957 273.048 117.465 76.935 27.808 432.383 87.698 380.173-328.214-14.5-115.5-301.469-224.198 53.531-301.422z" fill="#dfdcee"/><path d="M225524.356 204.386C225678.356 170.886 225665-.5 225665-.5h-1193v540.583s-30.776 232.138 58.559 260.171c131.392 41.231 163.229-37.701 287.301-83.51 199.382-74.621 218.464 98.816 272.85 118.223 77.012 27.646 432.058 86.854 379.848-329.058-14.5-115.5-301.203-224.299 53.798-301.523z" fill="#dfdcee"/><path d="M226718.412 203.899C226872.412 170.399 226859-.5 226859-.5h-1193v540.583s-30.977 232.322 58.358 260.355c131.392 41.231 163.445-38.198 287.805-84.002 199.464-74.43 218.202 99.642 272.66 118.951 77.085 27.492 431.745 86.044 379.535-329.868-14.5-115.5-300.946-224.396 54.054-301.62z" fill="#dfdcee"/><path d="M227912.466 203.431C228066.466 169.931 228053-.5 228053-.5h-1193v540.583s-31.169 232.5 58.166 260.533c131.392 41.231 163.652-38.677 288.288-84.476 199.542-74.245 217.951 100.437 272.478 119.652 77.155 27.342 431.444 85.264 379.234-330.648-14.5-115.5-300.7-224.489 54.3-301.713z" fill="#dfdcee"/><path d="M229106.518 202.98C229260.518 169.48 229247-.5 229247-.5h-1193v540.583s-31.354 232.67 57.981 260.703c131.392 41.231 163.851-39.136 288.752-84.93 199.619-74.069 217.71 101.199 272.303 120.324 77.223 27.2 431.155 84.516 378.945-331.396-14.5-115.5-300.463-224.58 54.537-301.804z" fill="#dfdcee"/><path d="M230300.569 202.547C230454.569 169.047 230441-.5 230441-.5h-1193v540.583s-31.532 232.835 57.803 260.868c131.392 41.231 164.043-39.579 289.199-85.369 199.691-73.898 217.477 101.934 272.134 120.972 77.289 27.062 430.877 83.796 378.667-332.116-14.5-115.5-300.235-224.667 54.766-301.891z" fill="#dfdcee"/><path d="M231494.617 202.131C231648.617 168.631 231635-.5 231635-.5h-1193v540.583s-31.702 232.992 57.633 261.025c131.392 41.231 164.226-40.003 289.628-85.789 199.76-73.734 217.253 102.639 271.972 121.594 77.351 26.929 430.609 83.104 378.399-332.808-14.5-115.5-300.016-224.75 54.985-301.974z" fill="#dfdcee"/><path d="M232688.663 201.731C232842.663 168.231 232829-.5 232829-.5h-1193v540.583s-31.867 233.144 57.468 261.177c131.392 41.231 164.404-40.412 290.041-86.193 199.828-73.578 217.039 103.317 271.816 122.192 77.412 26.801 430.353 82.438 378.143-333.474-14.5-115.5-299.805-224.83 55.195-302.054z" fill="#dfdcee"/><path d="M233882.708 201.346C234036.708 167.846 234023-.5 234023-.5h-1193v540.583s-32.024 233.29 57.311 261.323c131.392 41.231 164.573-40.805 290.437-86.582 199.892-73.426 216.832 103.968 271.666 122.767 77.47 26.679 430.106 81.798 377.896-334.114-14.5-115.5-299.603-224.907 55.398-302.131z" fill="#dfdcee"/><path d="M235076.75 200.977C235230.75 167.477 235217-.5 235217-.5h-1193v540.583s-32.176 233.43 57.159 261.463c131.392 41.231 164.736-41.182 290.818-86.955 199.955-73.281 216.635 104.594 271.523 123.318 77.525 26.562 429.869 81.185 377.659-334.727-14.5-115.5-299.409-224.981 55.591-302.205z" fill="#dfdcee"/><path d="M236270.791 200.622C236424.791 167.122 236411-.5 236411-.5h-1193v540.583s-32.322 233.564 57.013 261.597c131.392 41.231 164.894-41.544 291.185-87.313 200.014-73.142 216.443 105.195 271.384 123.849 77.578 26.448 429.641 80.594 377.431-335.318-14.5-115.5-299.222-225.052 55.778-302.276z" fill="#dfdcee"/><path d="M237464.831 200.281C237618.831 166.781 237605-.5 237605-.5h-1193v540.583s-32.462 233.693 56.873 261.726c131.392 41.231 165.044-41.892 291.537-87.658 200.07-73.007 216.26 105.774 271.251 124.359 77.63 26.34 429.422 80.027 377.212-335.885-14.5-115.5-299.042-225.12 55.958-302.344z" fill="#dfdcee"/><path d="M238658.869 199.954C238812.869 166.454 238799-.5 238799-.5h-1193v540.583s-32.596 233.817 56.739 261.85c131.392 41.231 165.189-42.226 291.874-87.988 200.126-72.879 216.085 106.327 271.124 124.847 77.679 26.236 429.212 79.483 377.002-336.429-14.5-115.5-298.871-225.185 56.13-302.409z" fill="#dfdcee"/><path d="M239852.905 199.64C240006.905 166.14 239993-.5 239993-.5h-1193v540.583s-32.725 233.936 56.61 261.969c131.392 41.231 165.328-42.547 292.198-88.306 200.178-72.755 215.916 106.86 271.002 125.317 77.726 26.137 429.01 78.961 376.8-336.951-14.5-115.5-298.705-225.248 56.295-302.472z" fill="#dfdcee"/><path d="M241046.94 199.339C241200.94 165.839 241187-.5 241187-.5h-1193v540.583s-32.849 234.05 56.486 262.083c131.392 41.231 165.461-42.854 292.509-88.61 200.229-72.637 215.755 107.371 270.884 125.768 77.772 26.04 428.817 78.459 376.607-337.453-14.5-115.5-298.546-225.308 56.454-302.532z" fill="#dfdcee"/><path d="M242240.973 199.049C242394.973 165.549 242381-.5 242381-.5h-1193v540.583s-32.967 234.16 56.368 262.193c131.392 41.231 165.588-43.15 292.807-88.903 200.277-72.523 215.599 107.861 270.771 126.2 77.815 25.948 428.631 77.979 376.421-337.933-14.5-115.5-298.394-225.367 56.606-302.591z" fill="#dfdcee"/><path d="M243435.005 198.772C243589.005 165.272 243575-.5 243575-.5h-1193v540.583s-33.081 234.265 56.254 262.298c131.392 41.231 165.711-43.433 293.093-89.183 200.324-72.414 215.45 108.331 270.664 126.614 77.856 25.86 428.453 77.518 376.243-338.394-14.5-115.5-298.249-225.422 56.751-302.646z" fill="#dfdcee"/><path d="M244629.036 198.507C244783.036 165.007 244769-.5 244769-.5h-1193v540.583s-33.19 234.366 56.145 262.399c131.392 41.231 165.828-43.704 293.367-89.452 200.368-72.31 215.308 108.781 270.56 127.012 77.897 25.775 428.283 77.075 376.073-338.837-14.5-115.5-298.109-225.474 56.891-302.698z" fill="#dfdcee"/><path d="M245823.066 198.252C245977.066 164.752 245963-.5 245963-.5h-1193v540.583s-33.295 234.462 56.04 262.495c131.392 41.231 165.942-43.964 293.63-89.708 200.411-72.21 215.171 109.212 270.461 127.391 77.935 25.695 428.119 76.653 375.909-339.259-14.5-115.5-297.974-225.526 57.026-302.75z" fill="#dfdcee"/><path d="M247017.094 198.008C247171.094 164.508 247157-.5 247157-.5h-1193v540.583s-33.395 234.554 55.94 262.587c131.392 41.231 166.049-44.212 293.881-89.954 200.452-72.114 215.041 109.625 270.366 127.756 77.972 25.616 427.963 76.247 375.753-339.665-14.5-115.5-297.846-225.575 57.154-302.799z" fill="#dfdcee"/><path d="M248211.121 197.775C248365.121 164.275 248351-.5 248351-.5h-1193v540.583s-33.49 234.643 55.845 262.676c131.392 41.231 166.152-44.451 294.121-90.19 200.491-72.023 214.915 110.02 270.275 128.104 78.007 25.542 427.813 75.859 375.603-340.053-14.5-115.5-297.723-225.621 57.277-302.845z" fill="#dfdcee"/><path d="M249405.147 197.552C249559.147 164.052 249545-.5 249545-.5h-1193v540.583s-33.582 234.727 55.753 262.76c131.392 41.231 166.251-44.678 294.351-90.415 200.529-71.935 214.796 110.398 270.189 128.437 78.04 25.472 427.67 75.489 375.46-340.423-14.5-115.5-297.606-225.666 57.394-302.89z" fill="#dfdcee"/><path d="M250599.171 197.339C250753.171 163.839 250739-.5 250739-.5h-1193v540.583s-33.669 234.808 55.666 262.841c131.392 41.231 166.344-44.896 294.571-90.631 200.564-71.851 214.681 110.759 270.105 128.756 78.073 25.404 427.533 75.135 375.323-340.777-14.5-115.5-297.494-225.709 57.506-302.933z" fill="#dfdcee"/><path d="M251793.195 197.136C251947.195 163.636 251933-.5 251933-.5h-1193v540.583s-33.753 234.885 55.582 262.918c131.392 41.231 166.435-45.103 294.781-90.836 200.598-71.771 214.572 111.103 270.027 129.06 78.103 25.339 427.402 74.796 375.192-341.116-14.5-115.5-297.387-225.749 57.613-302.973z" fill="#dfdcee"/><path d="M252987.217 196.942C253141.217 163.442 253127-.5 253127-.5h-1193v540.583s-33.832 234.959 55.503 262.992c131.392 41.231 166.52-45.302 294.98-91.033 200.631-71.695 214.468 111.433 269.951 129.35 78.133 25.277 427.278 74.474 375.068-341.438-14.5-115.5-297.285-225.788 57.715-303.012z" fill="#dfdcee"/><path d="M254181.239 196.757C254335.239 163.257 254321-.5 254321-.5h-1193v540.583s-33.908 235.029 55.427 263.062c131.392 41.231 166.602-45.49 295.171-91.219 200.662-71.623 214.369 111.745 269.879 129.626 78.16 25.218 427.16 74.166 374.95-341.746-14.5-115.5-297.188-225.825 57.812-303.049z" fill="#dfdcee"/><path d="M255375.259 196.582C255529.259 163.082 255515-.5 255515-.5h-1193v540.583s-33.981 235.095 55.354 263.128c131.392 41.231 166.68-45.669 295.353-91.396 200.692-71.554 214.275 112.043 269.811 129.888 78.187 25.163 427.046 73.874 374.836-342.038-14.5-115.5-297.095-225.859 57.905-303.083z" fill="#dfdbee"/><path d="M256569.278 196.414C256723.278 162.914 256709-.5 256709-.5h-1193v540.583s-34.049 235.159 55.286 263.192c131.392 41.231 166.754-45.841 295.525-91.566 200.72-71.488 214.185 112.327 269.746 130.139 78.211 25.109 426.939 73.595 374.729-342.317-14.5-115.5-297.008-225.893 57.992-303.117z" fill="#dfdbee"/><path d="M257763.297 196.255C257917.297 162.755 257903-.5 257903-.5h-1193v540.583s-34.114 235.219 55.221 263.252c131.392 41.231 166.824-46.003 295.689-91.726 200.746-71.425 214.099 112.596 269.683 130.376 78.236 25.059 426.837 73.331 374.627-342.581-14.5-115.5-296.923-225.925 58.077-303.149z" fill="#dfdbee"/><path d="M258957.314 196.105C259111.314 162.605 259097-.5 259097-.5h-1193v540.583s-34.176 235.276 55.159 263.309c131.392 41.231 166.89-46.157 295.844-91.879 200.772-71.365 214.019 112.852 269.625 130.602 78.259 25.011 426.741 73.081 374.531-342.831-14.5-115.5-296.845-225.955 58.155-303.179z" fill="#dfdbed"/><path d="M260151.331 195.962C260305.331 162.462 260291-.5 260291-.5h-1193v540.583s-34.235 235.33 55.1 263.363c131.392 41.231 166.954-46.302 295.992-92.023 200.796-71.309 213.942 113.094 269.569 130.815 78.28 24.965 426.649 72.844 374.439-343.068-14.5-115.5-296.769-225.984 58.231-303.208z" fill="#dfdbed"/><path d="M261345.346 195.827C261499.346 162.327 261485-.5 261485-.5h-1193v540.583s-34.29 235.381 55.045 263.414c131.392 41.231 167.013-46.44 296.131-92.159 200.818-71.257 213.869 113.322 269.517 131.017 78.3 24.922 426.562 72.619 374.352-343.293-14.5-115.5-296.699-226.011 58.301-303.235z" fill="#dfdbed"/><path d="M262539.361 195.7c154-33.5 139.639-196.2 139.639-196.2h-1193v540.583s-34.343 235.429 54.992 263.462c131.392 41.231 167.07-46.57 296.263-92.287 200.84-71.207 213.801 113.538 269.467 131.207 78.32 24.881 426.48 72.407 374.27-343.505-14.5-115.5-296.631-226.036 58.369-303.26z" fill="#dfdbed"/><path d="M263733.375 195.58C263887.375 162.08 263873-.5 263873-.5h-1193v540.583s-34.392 235.475 54.943 263.508c131.392 41.231 167.123-46.693 296.386-92.409 200.86-71.16 213.737 113.741 269.421 131.386 78.337 24.844 426.403 72.208 374.193-343.704-14.5-115.5-296.568-226.06 58.432-303.284z" fill="#e0dbed"/><path d="M264927.388 195.467C265081.388 161.967 265067-.5 265067-.5h-1193v540.583s-34.438 235.518 54.897 263.551c131.392 41.231 167.172-46.808 296.502-92.523 200.879-71.115 213.677 113.932 269.377 131.554 78.354 24.808 426.331 72.021 374.121-343.891-14.5-115.5-296.509-226.083 58.491-303.307z" fill="#e0dbed"/><path d="M266121.4 195.361c154-33.5 139.6-195.861 139.6-195.861h-1193v540.583s-34.481 235.558 54.854 263.591c131.392 41.231 167.219-46.916 296.611-92.63 200.897-71.074 213.619 114.111 269.336 131.713 78.37 24.774 426.263 71.844 374.053-344.068-14.5-115.5-296.454-226.104 58.546-303.328z" fill="#e0dbed"/><path d="M267315.412 195.262C267469.412 161.762 267455-.5 267455-.5h-1193v540.583s-34.522 235.595 54.813 263.628c131.392 41.231 167.263-47.016 296.713-92.729 200.914-71.035 213.567 114.278 269.297 131.86 78.386 24.743 426.2 71.68 373.99-344.232-14.5-115.5-296.401-226.124 58.599-303.348z" fill="#e0dbed"/><path d="M268509.422 195.17C268663.422 161.67 268649-.5 268649-.5h-1193v540.583s-34.56 235.63 54.775 263.663c131.392 41.231 167.304-47.111 296.809-92.823 200.928-70.998 213.517 114.435 269.261 131.998 78.399 24.714 426.14 71.527 373.93-344.385-14.5-115.5-296.353-226.142 58.647-303.366z" fill="#e0dbed"/><path d="M269703.432 195.085C269857.432 161.585 269843-.5 269843-.5h-1193v540.583s-34.595 235.662 54.74 263.695c131.392 41.231 167.342-47.197 296.897-92.909 200.943-70.965 213.471 114.58 269.228 132.126 78.411 24.686 426.085 71.385 373.875-344.527-14.5-115.5-296.308-226.159 58.692-303.383z" fill="#e0dbed"/><path d="M270897.441 195.006C271051.441 161.506 271037-.5 271037-.5h-1193v540.583s-34.627 235.692 54.708 263.725c131.392 41.231 167.376-47.278 296.978-92.989 200.956-70.933 213.428 114.714 269.197 132.244 78.424 24.661 426.035 71.254 373.825-344.658-14.5-115.5-296.267-226.175 58.733-303.399z" fill="#e0dbed"/><path d="M272091.45 194.933C272245.45 161.433 272231-.5 272231-.5h-1193v540.583s-34.657 235.72 54.678 263.753c131.392 41.231 167.408-47.353 297.053-93.063 200.968-70.905 213.39 114.838 269.169 132.353 78.435 24.638 425.988 71.132 373.778-344.78-14.5-115.5-296.228-226.189 58.772-303.413z" fill="#e0dbed"/><path d="M273285.458 194.866C273439.458 161.366 273425-.5 273425-.5h-1193v540.583s-34.685 235.745 54.65 263.778c131.392 41.231 167.438-47.421 297.123-93.13 200.979-70.879 213.353 114.951 269.142 132.453 78.445 24.616 425.945 71.021 373.735-344.891-14.5-115.5-296.192-226.203 58.808-303.427z" fill="#e0dbed"/><path d="M274479.465 194.806C274633.465 161.306 274619-.5 274619-.5h-1193v540.583s-34.71 235.768 54.625 263.801c131.392 41.231 167.465-47.483 297.185-93.191 200.99-70.855 213.321 115.053 269.119 132.543 78.454 24.597 425.906 70.921 373.696-344.991-14.5-115.5-296.16-226.215 58.84-303.439z" fill="#e0dbed"/><path d="M275673.471 194.751C275827.471 161.251 275813-.5 275813-.5h-1193v540.583s-34.732 235.789 54.603 263.822c131.392 41.231 167.489-47.539 297.241-93.247 200.999-70.833 213.292 115.146 269.098 132.626 78.462 24.579 425.871 70.829 373.661-345.083-14.5-115.5-296.132-226.226 58.868-303.45z" fill="#e0daed"/><path d="M276867.477 194.702C277021.477 161.202 277007-.5 277007-.5h-1193v540.583s-34.752 235.808 54.583 263.841c131.392 41.231 167.511-47.589 297.292-93.297 201.007-70.814 213.265 115.229 269.078 132.699 78.47 24.564 425.84 70.747 373.63-345.165-14.5-115.5-296.106-226.235 58.894-303.459z" fill="#e0daed"/><path d="M278061.482 194.658C278215.482 161.158 278201-.5 278201-.5h-1193v540.583s-34.77 235.824 54.565 263.857c131.392 41.231 167.53-47.633 297.337-93.34 201.014-70.797 213.242 115.303 269.061 132.763 78.476 24.551 425.812 70.676 373.602-345.236-14.5-115.5-296.083-226.245 58.917-303.469z" fill="#e0daed"/><path d="M279255.486 194.62C279409.486 161.12 279395-.5 279395-.5h-1193v540.583s-34.786 235.838 54.549 263.871c131.392 41.231 167.547-47.672 297.376-93.378 201.021-70.782 213.222 115.367 269.047 132.82 78.482 24.538 425.787 70.612 373.577-345.3-14.5-115.5-296.063-226.252 58.937-303.476z" fill="#e0daed"/><path d="M280449.49 194.588C280603.49 161.088 280589-.5 280589-.5h-1193v540.583s-34.799 235.851 54.536 263.884c131.392 41.231 167.561-47.706 297.409-93.412 201.027-70.769 213.205 115.423 269.035 132.869 78.486 24.528 425.766 70.558 373.556-345.354-14.5-115.5-296.046-226.258 58.954-303.482z" fill="#e0daed"/><path d="M281643.493 194.561C281797.493 161.061 281783-.5 281783-.5h-1193v540.583s-34.81 235.861 54.525 263.894c131.392 41.231 167.573-47.733 297.437-93.439 201.031-70.759 213.19 115.469 269.024 132.91 78.491 24.519 425.749 70.512 373.539-345.4-14.5-115.5-296.032-226.263 58.968-303.487z" fill="#e0daec"/><path d="M282837.496 194.539C282991.496 161.039 282977-.5 282977-.5h-1193v540.583s-34.819 235.869 54.516 263.902c131.392 41.231 167.583-47.755 297.46-93.461 201.035-70.75 213.178 115.506 269.015 132.943 78.494 24.512 425.735 70.476 373.525-345.436-14.5-115.5-296.02-226.268 58.98-303.492z" fill="#e0daec"/><path d="M284031.498 194.522C284185.498 161.022 284171-.5 284171-.5h-1193v540.583s-34.826 235.876 54.509 263.909c131.392 41.231 167.59-47.773 297.478-93.478 201.037-70.744 213.168 115.534 269.008 132.967 78.497 24.507 425.724 70.448 373.514-345.464-14.5-115.5-296.011-226.271 58.989-303.495z" fill="#e0daec"/><path d="M285225.499 194.51C285379.499 161.01 285365-.5 285365-.5h-1193v540.583s-34.831 235.88 54.504 263.913c131.392 41.231 167.596-47.785 297.49-93.49 201.039-70.739 213.162 115.555 269.004 132.986 78.498 24.503 425.716 70.428 373.506-345.484-14.5-115.5-296.005-226.274 58.995-303.498z" fill="#e0daec"/><path d="M286419.5 194.502c154-33.5 139.5-195.002 139.5-195.002h-1193v540.583s-34.834 235.883 54.501 263.916c131.392 41.231 167.599-47.792 297.498-93.498 201.04-70.735 213.158 115.567 269 132.997 78.5 24.501 425.712 70.416 373.502-345.496-14.5-115.5-296.001-226.276 58.999-303.5z" fill="#e0daec"/><path d="M287613.5 194.5c154-33.5 139.5-195 139.5-195h-1193v540.583s-34.835 235.884 54.5 263.917c131.392 41.231 167.6-47.795 297.5-93.5 201.041-70.735 213.157 115.571 269 133 78.5 24.5 425.71 70.412 373.5-345.5-14.5-115.5-296-226.276 59-303.5z" fill="#e0daec"/></svg>
